<?xml version="1.0" standalone="no"?>
<!DOCTYPE svg PUBLIC "-//W3C//DTD SVG 20010904//EN"
 "http://www.w3.org/TR/2001/REC-SVG-20010904/DTD/svg10.dtd">
<svg version="1.0" xmlns="http://www.w3.org/2000/svg"
 width="939.000000pt" height="1280.000000pt" viewBox="0 0 939.000000 1280.000000"
 preserveAspectRatio="xMidYMid meet">
<metadata>
Created by potrace 1.15, written by Peter Selinger 2001-2017
</metadata>
<g transform="translate(0.000000,1280.000000) scale(0.100000,-0.100000)"
fill="#000000" stroke="none">
<path d="M4225 12793 c-339 -29 -728 -98 -1040 -184 -82 -22 -278 -83 -435
-134 -321 -105 -403 -128 -787 -214 -694 -157 -999 -275 -1104 -427 -46 -67
-67 -130 -81 -239 -21 -175 15 -380 111 -632 245 -643 301 -763 342 -737 46
28 105 358 129 719 23 358 34 416 64 344 30 -73 39 -168 33 -359 -9 -283 -41
-463 -132 -755 -88 -282 -89 -285 -89 -375 -1 -76 2 -90 27 -133 72 -122 229
-151 393 -73 141 67 252 164 451 396 261 304 575 533 1238 903 648 362 1232
609 1716 727 216 52 348 70 510 70 140 -1 192 -9 371 -55 105 -27 108 -28 128
-10 11 10 20 28 20 41 0 77 -117 341 -219 494 -253 378 -605 564 -1183 625
-132 13 -355 18 -463 8z"/>
<path d="M5535 11549 c-282 -23 -623 -106 -983 -240 -662 -246 -1784 -860
-2233 -1221 -223 -179 -386 -392 -422 -554 l-14 -59 -199 -6 c-246 -7 -356
-30 -508 -106 -199 -98 -332 -267 -393 -500 -21 -81 -25 -122 -26 -233 -1
-152 12 -242 55 -380 93 -295 270 -516 513 -637 299 -150 700 -157 1025 -18
105 45 145 44 176 -3 30 -44 37 -110 29 -265 -11 -204 23 -307 101 -307 42 0
90 53 144 161 23 45 44 79 47 76 3 -3 9 -68 13 -144 11 -176 24 -217 150 -472
55 -112 116 -249 136 -304 135 -388 131 -1138 -8 -1410 -27 -54 -85 -115 -132
-140 -58 -31 -235 -31 -353 1 -45 12 -86 22 -93 22 -42 0 73 -63 200 -110 179
-66 290 -93 405 -98 138 -6 198 9 349 83 80 39 123 55 152 55 45 0 276 -64
311 -86 12 -8 41 -42 64 -76 119 -178 140 -190 324 -189 145 1 230 14 239 37
7 19 -69 95 -119 118 -19 10 -71 23 -115 30 -86 14 -95 18 -87 40 7 19 91 36
178 36 99 0 138 -22 194 -109 24 -38 53 -72 65 -76 40 -13 82 25 132 120 51
97 87 134 146 155 23 8 125 16 267 20 250 9 271 13 396 75 240 121 543 363
744 596 217 251 333 430 522 804 108 215 148 283 193 335 108 123 192 245 245
355 95 195 123 367 132 806 l6 297 105 103 c173 171 261 304 315 474 53 168
60 357 18 477 -31 91 -84 160 -210 275 -161 149 -208 203 -318 371 -83 128
-114 166 -247 297 -238 236 -246 247 -271 421 -65 439 -226 742 -495 924 -211
143 -518 207 -865 179z m324 -169 c303 -31 508 -147 674 -381 68 -95 99 -170
105 -248 14 -197 -158 -304 -658 -410 -80 -17 -307 -62 -505 -101 -198 -39
-440 -91 -539 -115 -503 -127 -868 -288 -1175 -518 -109 -82 -171 -139 -171
-157 0 -18 23 -10 266 91 443 183 918 333 1564 492 444 110 655 148 820 149
131 1 184 -12 205 -52 44 -85 -78 -181 -360 -282 -218 -79 -577 -167 -1270
-313 -335 -70 -565 -148 -825 -281 -306 -155 -570 -348 -1025 -748 -60 -54
-122 -104 -137 -112 -25 -13 -28 -12 -36 3 -5 10 -13 65 -16 123 -22 331 -68
502 -175 643 -74 100 -237 195 -403 237 -137 35 -153 55 -116 147 50 123 179
278 343 411 106 85 401 281 653 431 1004 600 1863 942 2487 990 160 12 182 12
294 1z m1116 -1295 c22 -31 81 -122 130 -203 118 -192 209 -323 266 -386 137
-152 204 -315 216 -521 6 -107 5 -114 -36 -262 -80 -295 -160 -488 -273 -658
-61 -92 -142 -180 -157 -171 -12 8 -1 39 57 172 91 205 107 306 99 621 -9 391
-56 633 -166 868 -51 109 -81 146 -81 103 0 -14 14 -92 31 -173 44 -215 59
-342 66 -580 7 -240 -6 -409 -42 -549 -55 -219 -159 -355 -202 -265 -20 41
-31 144 -48 444 -33 593 -92 930 -211 1207 -19 45 -34 91 -32 102 2 14 29 35
87 66 115 62 163 107 200 185 19 40 35 63 43 60 7 -3 31 -30 53 -60z m-702
-378 c78 -33 158 -169 201 -342 52 -207 71 -437 86 -1020 5 -209 14 -427 20
-485 41 -429 196 -826 400 -1025 71 -70 111 -97 159 -104 l36 -6 -220 -225
c-131 -134 -312 -335 -446 -495 -368 -440 -700 -770 -964 -960 -186 -134 -296
-164 -678 -185 -162 -9 -200 -14 -280 -40 -461 -146 -547 -151 -760 -47 -207
102 -253 165 -394 542 -57 154 -78 246 -98 425 -40 372 -100 632 -224 967 -87
237 -101 292 -110 428 -7 116 -1 309 11 320 12 13 28 -6 107 -124 79 -118 220
-296 227 -288 3 2 -11 31 -31 64 -20 33 -60 116 -89 184 -29 68 -81 186 -115
262 -34 76 -70 170 -81 208 -29 106 -63 355 -57 419 13 120 125 278 290 404
79 61 142 82 306 106 180 27 253 -1 326 -122 51 -84 51 -85 74 -64 37 33 51
101 51 237 0 148 -12 214 -46 265 -14 20 -24 38 -22 39 10 10 238 119 313 150
236 98 541 184 1055 295 379 82 610 140 750 189 125 44 154 48 203 28z m-4338
-408 c149 -20 346 -103 477 -199 57 -42 71 -59 101 -122 137 -290 118 -574
-54 -805 -43 -57 -139 -131 -212 -162 -127 -55 -309 -64 -504 -25 -51 10 -96
14 -100 10 -11 -11 43 -51 123 -91 98 -49 200 -72 396 -89 216 -18 231 -27
126 -69 -260 -103 -556 -109 -811 -17 -245 90 -426 300 -511 594 -56 191 -57
389 -3 553 66 201 217 335 443 393 137 36 385 49 529 29z m1915 -451 c0 -32
-41 -46 -150 -51 -58 -3 -116 -9 -130 -13 -20 -5 56 52 213 159 21 15 23 13
44 -31 13 -26 23 -55 23 -64z m-1036 -745 c31 -160 32 -461 1 -598 -21 -97
-63 -177 -98 -189 -20 -7 -30 -7 -35 1 -4 7 -20 106 -36 220 -32 241 -31 250
38 359 25 38 59 106 77 152 17 45 35 82 40 82 4 0 10 -12 13 -27z m4637 -448
c-6 -99 -20 -234 -31 -299 -32 -185 -97 -399 -143 -468 -51 -75 -73 -25 -89
206 -27 372 34 619 199 810 l68 79 3 -74 c2 -41 -1 -155 -7 -254z"/>
<path d="M5626 9502 c-7 -12 8 -25 121 -101 98 -66 153 -116 153 -138 0 -10
-29 -13 -125 -13 -68 0 -148 -5 -177 -11 -77 -15 -148 -39 -148 -50 0 -5 69
-9 158 -9 173 -1 272 -14 380 -53 39 -15 74 -22 77 -18 9 15 -63 144 -114 205
-65 77 -134 133 -196 162 -60 27 -120 40 -129 26z"/>
<path d="M5560 9095 c-59 -18 -124 -86 -189 -194 -51 -84 -117 -239 -107 -249
3 -3 37 1 75 8 43 8 97 10 142 6 41 -3 117 -9 169 -12 l95 -6 130 50 c72 28
155 58 185 67 153 46 157 54 78 129 -54 50 -154 113 -165 102 -3 -3 9 -28 26
-56 17 -28 31 -57 31 -65 0 -42 -127 -97 -264 -114 -135 -16 -219 7 -252 70
-30 58 -9 160 36 174 31 10 40 -2 40 -53 0 -55 19 -87 55 -96 40 -10 105 12
142 49 27 27 33 40 33 78 0 56 -32 91 -103 112 -61 18 -98 18 -157 0z"/>
<path d="M3827 7922 c-52 -57 -120 -157 -165 -247 -48 -96 -80 -208 -107 -378
-26 -157 -43 -224 -52 -200 -2 7 -15 56 -28 110 -13 54 -46 166 -74 248 -28
83 -56 169 -62 193 -12 51 -29 55 -29 6 0 -72 23 -182 61 -284 74 -203 73
-192 74 -540 1 -350 -5 -311 91 -709 50 -209 70 -261 122 -314 71 -74 164
-102 308 -95 105 5 143 22 252 109 40 33 85 62 99 65 14 4 69 1 123 -6 109
-14 273 -9 335 12 22 7 57 30 77 50 31 31 38 45 38 78 0 31 -5 43 -26 56 -22
15 -40 16 -144 8 -150 -11 -220 -3 -404 47 -155 43 -195 45 -241 15 -67 -44
-49 -155 33 -207 25 -16 56 -29 68 -29 39 0 37 -20 -3 -37 -54 -23 -172 -20
-245 6 -32 11 -58 17 -58 13 0 -17 98 -82 155 -103 29 -10 29 -11 10 -22 -11
-7 -56 -12 -100 -12 -67 0 -90 5 -142 29 -101 46 -131 94 -133 208 0 36 1 37
29 32 42 -9 120 30 221 111 47 38 109 79 138 93 59 26 75 26 207 -3 66 -14
107 -16 235 -11 85 3 183 9 217 12 34 4 75 3 90 -1 17 -4 70 -49 133 -114 58
-58 129 -122 158 -140 28 -19 52 -38 52 -42 0 -19 -109 -60 -166 -62 -57 -2
-59 -1 -62 25 l-3 27 -52 -28 c-29 -16 -70 -34 -92 -41 -93 -29 -58 -39 110
-32 l130 5 -19 -22 c-11 -11 -17 -23 -15 -25 14 -12 147 -38 220 -43 134 -9
181 6 254 81 33 34 71 82 84 106 l25 44 -25 -19 c-158 -123 -221 -155 -309
-155 -86 0 -98 18 -59 85 l22 36 62 -6 c75 -8 161 8 207 38 56 37 83 109 132
352 25 121 50 235 57 253 21 59 34 32 33 -69 -1 -82 -6 -111 -42 -222 -23 -70
-42 -131 -42 -134 0 -12 43 33 80 82 58 79 79 127 105 247 20 88 36 131 75
202 153 276 177 353 170 536 -2 43 -2 44 -11 15 -5 -16 -20 -75 -33 -130 -45
-183 -128 -348 -169 -332 -44 17 -25 166 44 340 22 54 98 215 169 357 72 142
130 262 130 266 0 39 -193 -239 -264 -382 -59 -116 -79 -175 -121 -351 -36
-151 -66 -223 -90 -223 -22 0 -32 33 -66 224 -51 293 -91 434 -161 568 -40 77
-111 168 -122 157 -3 -3 23 -66 59 -140 73 -153 108 -263 129 -411 27 -185 50
-489 50 -673 1 -161 -2 -188 -22 -254 -44 -138 -151 -209 -302 -199 -97 7
-148 39 -298 188 -118 118 -132 129 -207 159 -199 79 -186 61 -315 413 -20 57
-45 98 -92 154 l-63 77 0 66 c0 56 4 72 28 107 30 45 91 84 130 84 47 0 52
-20 49 -178 -3 -176 10 -234 63 -281 29 -25 44 -31 84 -31 59 0 135 26 241 81
90 47 121 78 161 164 84 179 85 395 2 560 -48 97 -127 151 -238 162 -55 6
-125 -3 -125 -15 0 -4 39 -25 86 -46 134 -61 223 -156 224 -237 0 -59 -30 -56
-206 24 -235 106 -313 109 -595 17 -84 -27 -164 -50 -176 -50 -81 0 57 118
291 247 50 27 91 54 93 60 10 28 -131 31 -208 4 -226 -78 -329 -210 -329 -425
0 -161 66 -312 191 -437 62 -63 94 -86 172 -124 64 -31 114 -48 151 -52 54 -6
56 -7 66 -42 14 -51 12 -72 -9 -107 -57 -94 -373 -293 -559 -353 -87 -28 -183
-32 -228 -8 -90 47 -119 132 -119 347 0 171 10 234 61 420 21 75 43 187 54
281 32 264 74 399 171 548 71 110 91 149 87 163 -2 5 -25 -13 -51 -40z"/>
<path d="M6650 6757 c-164 -94 -322 -215 -402 -309 -110 -128 -227 -331 -337
-580 -82 -187 -121 -263 -191 -372 -90 -139 -84 -142 75 -37 134 88 291 243
333 330 37 75 39 105 12 146 -29 44 -25 106 13 200 77 189 177 311 445 542
115 100 140 123 130 123 -2 0 -37 -19 -78 -43z"/>
<path d="M4564 5708 c-54 -170 -32 -264 78 -338 93 -62 247 -111 343 -109 l40
1 -57 18 c-83 26 -138 61 -202 130 -95 103 -156 235 -156 336 0 24 -4 44 -10
44 -5 0 -21 -37 -36 -82z"/>
<path d="M4282 5658 c-12 -40 -42 -106 -67 -146 -25 -41 -45 -78 -45 -83 0 -5
9 -9 20 -9 11 0 20 -6 20 -14 0 -11 -64 -103 -105 -151 -25 -29 -101 -75 -148
-91 -29 -9 -65 -23 -81 -31 -27 -14 -28 -16 -10 -26 10 -6 64 -13 119 -15 166
-7 236 23 269 116 14 39 62 509 53 518 -2 2 -13 -28 -25 -68z"/>
<path d="M6454 5361 c-21 -15 -115 -100 -208 -187 -93 -87 -194 -181 -224
-207 -213 -188 -392 -263 -812 -337 -270 -48 -325 -83 -317 -202 6 -100 63
-150 243 -214 159 -57 165 -64 72 -92 -100 -31 -248 -66 -253 -60 -3 3 2 25
10 49 19 53 13 97 -22 157 -66 115 -146 110 -464 -29 -196 -85 -236 -109 -256
-157 -14 -33 -14 -42 1 -87 33 -105 114 -215 193 -262 107 -62 298 -23 417 87
l42 39 40 -19 c26 -12 120 -29 279 -50 245 -32 500 -71 751 -114 253 -44 338
-51 609 -51 305 1 496 19 627 61 58 19 75 36 53 57 -22 23 -103 51 -368 128
-400 116 -475 167 -379 258 85 81 233 142 832 341 616 205 730 252 713 296
-14 37 -58 39 -778 39 -605 1 -709 3 -767 17 -113 26 -155 67 -145 140 3 23
42 113 86 202 111 221 117 265 25 197z"/>
<path d="M2290 4780 c0 -14 144 -134 365 -305 229 -178 276 -210 381 -263 44
-22 86 -48 94 -57 13 -15 11 -20 -15 -41 -37 -29 -171 -79 -285 -105 -68 -16
-144 -22 -386 -29 -313 -8 -359 -15 -332 -47 52 -63 377 -188 640 -247 178
-40 345 -56 570 -56 359 0 779 62 849 126 29 27 23 75 -20 162 -47 94 -55 129
-42 179 19 72 79 110 214 138 103 22 167 45 167 60 0 8 -39 20 -117 35 -151
28 -213 58 -338 165 -55 47 -118 96 -140 109 -106 58 -213 59 -414 2 -179 -51
-269 -62 -400 -47 -176 20 -327 63 -608 172 -152 59 -183 67 -183 49z"/>
<path d="M4880 3109 c-41 -10 -119 -22 -172 -25 -86 -6 -98 -9 -98 -26 0 -16
6 -18 57 -12 l56 7 -6 -294 c-6 -298 -16 -418 -62 -724 -40 -271 -33 -338 38
-380 75 -44 250 35 303 136 30 58 11 149 -38 183 -68 48 -178 -15 -178 -102 0
-56 58 -83 93 -44 23 25 22 46 0 37 -10 -4 -28 -10 -40 -12 -19 -5 -23 -1 -23
20 0 59 84 81 117 31 46 -70 -4 -179 -99 -219 -60 -25 -92 -20 -127 20 -56 64
-55 81 23 407 60 249 74 328 111 603 13 105 30 227 36 272 l11 83 39 11 c27 9
39 18 39 31 0 10 -1 18 -2 17 -2 -1 -37 -10 -78 -20z"/>
<path d="M2780 3104 c-52 -7 -119 -13 -148 -13 -45 -1 -53 -4 -50 -18 2 -14
15 -19 52 -21 l49 -3 -6 -77 c-3 -42 -12 -198 -18 -347 -7 -148 -13 -271 -14
-273 -2 -2 -26 19 -54 47 -58 56 -104 75 -167 68 -104 -11 -238 -119 -292
-234 -23 -50 -27 -71 -26 -148 0 -113 25 -179 94 -257 89 -100 229 -144 317
-99 74 37 109 108 94 187 -23 123 -132 172 -209 94 -66 -66 -38 -180 44 -180
51 0 91 77 53 101 -21 13 -29 11 -29 -10 0 -25 -25 -44 -49 -36 -27 8 -34 34
-16 61 30 46 97 43 146 -6 53 -53 30 -148 -44 -183 -45 -22 -72 -21 -123 2
-85 39 -134 145 -142 307 -5 117 11 189 60 265 87 132 215 130 308 -6 29 -42
30 -48 30 -147 0 -57 5 -167 10 -246 7 -118 13 -152 33 -197 30 -64 57 -83 80
-57 15 16 14 20 -13 46 -46 43 -53 89 -47 281 9 258 71 795 114 991 15 69 18
75 47 82 29 8 43 33 21 37 -5 1 -53 -4 -105 -11z"/>
<path d="M3818 3032 l4 -87 -90 -17 c-111 -21 -186 -54 -242 -104 -98 -89 -91
-185 17 -254 62 -39 119 -41 162 -4 25 20 31 34 31 63 0 42 -24 71 -58 71 -26
0 -53 -26 -46 -45 7 -18 9 -18 33 -3 21 13 55 4 49 -14 -8 -24 -59 -52 -93
-51 -74 2 -100 43 -84 131 11 58 52 110 111 140 44 22 203 60 213 50 3 -3 9
-119 14 -258 10 -262 1 -568 -22 -770 l-12 -105 -87 1 c-83 2 -86 1 -91 -22
-4 -21 0 -23 51 -30 79 -10 273 5 359 26 103 27 154 52 208 101 151 139 123
282 -72 371 -34 15 -74 28 -88 28 -37 0 -31 17 9 24 107 20 261 138 308 235
65 133 -6 287 -169 370 -50 24 -90 36 -240 67 -22 4 -23 10 -23 83 0 91 0 91
-94 91 l-62 0 4 -88z m279 -154 c69 -25 154 -115 174 -184 34 -117 10 -229
-67 -313 -49 -55 -101 -81 -178 -89 -53 -6 -61 -10 -64 -29 -3 -19 3 -22 45
-28 139 -20 203 -94 203 -234 0 -96 -54 -159 -173 -201 -68 -24 -177 -38 -177
-23 0 6 11 93 24 194 41 303 76 697 76 844 0 45 3 84 6 88 9 8 73 -3 131 -25z"/>
<path d="M507 2929 c-259 -29 -482 -318 -504 -654 -11 -180 38 -310 165 -434
127 -125 246 -176 407 -175 143 1 227 39 301 136 l28 38 28 -117 c30 -124 36
-211 20 -254 -58 -149 -262 -160 -262 -14 0 60 23 105 54 105 24 0 36 -17 36
-51 0 -13 -7 -19 -21 -19 -12 0 -19 -5 -17 -12 7 -20 36 -21 63 -4 64 42 -10
137 -94 120 -65 -13 -125 -98 -113 -160 11 -60 102 -115 188 -115 71 0 129 31
171 93 53 79 56 116 33 411 -11 144 -20 269 -20 278 0 13 15 19 68 25 64 9 67
10 70 38 3 25 1 28 -20 23 -40 -10 -199 -26 -330 -33 l-128 -6 0 -27 c0 -28 0
-28 54 -20 30 4 83 9 118 11 l63 3 -3 -40 c-11 -175 -61 -298 -139 -346 -67
-42 -208 -33 -311 20 -99 50 -202 177 -242 297 -40 120 -43 328 -6 476 24 95
88 216 143 272 73 75 138 101 248 101 80 0 94 -3 130 -26 76 -50 105 -104 105
-196 0 -107 -52 -173 -138 -173 -69 0 -121 74 -88 125 26 40 86 26 86 -20 0
-30 20 -33 43 -7 26 28 21 65 -13 97 -39 38 -81 38 -120 0 -52 -50 -57 -117
-15 -182 53 -80 200 -61 289 37 44 49 56 77 56 135 0 59 -12 87 -62 141 -76
83 -185 118 -321 103z"/>
<path d="M8405 2896 c-112 -49 -159 -185 -95 -275 24 -35 87 -71 121 -71 38 0
109 40 124 71 22 43 18 68 -17 100 -24 24 -39 29 -66 27 -67 -6 -96 -89 -36
-104 14 -4 31 -1 40 7 13 11 12 15 -13 35 -22 17 -25 25 -16 35 27 27 63 -19
63 -81 0 -54 -80 -80 -126 -42 -48 39 -57 101 -23 162 26 47 66 70 119 70 129
0 201 -141 217 -426 18 -332 -93 -603 -285 -692 -49 -23 -70 -27 -152 -27 -84
0 -101 3 -150 28 -99 51 -176 144 -211 258 -15 48 -19 91 -19 202 0 179 27
345 92 572 l23 79 55 16 c43 13 56 21 58 38 3 20 0 22 -25 16 -15 -4 -38 -11
-51 -15 -22 -9 -216 -29 -274 -29 -21 0 -28 -5 -28 -20 0 -17 7 -20 50 -20 33
0 50 -4 50 -13 0 -6 -14 -107 -30 -222 -40 -273 -48 -448 -26 -533 26 -102 65
-171 141 -248 111 -113 242 -164 383 -150 108 11 168 40 248 120 145 145 216
373 200 644 -11 183 -61 347 -132 431 -53 63 -140 87 -209 57z"/>
<path d="M6066 2633 c-28 -7 -87 -46 -112 -74 -65 -71 -81 -172 -46 -275 22
-64 52 -98 165 -194 189 -161 233 -227 208 -312 -14 -46 -72 -104 -112 -113
-47 -11 -132 20 -168 60 -36 41 -40 76 -11 105 24 24 57 26 86 5 12 -8 24 -11
28 -8 12 13 6 50 -12 66 -45 41 -129 2 -152 -69 -24 -72 27 -181 98 -211 138
-58 322 123 298 293 -11 86 -48 135 -213 284 -70 64 -110 135 -121 217 -11 78
-1 118 39 159 58 60 149 55 208 -11 55 -63 53 -157 -3 -163 -35 -4 -83 14 -90
35 -4 9 3 31 14 50 25 43 26 43 -9 43 -34 0 -61 -23 -61 -51 0 -29 36 -95 62
-113 51 -36 127 -3 166 74 40 78 13 147 -73 186 -48 23 -135 31 -189 17z"/>
<path d="M6622 2614 c-58 -29 -113 -92 -133 -151 -23 -70 8 -209 59 -267 9
-10 76 -69 147 -131 152 -130 191 -186 182 -261 -5 -51 -43 -106 -89 -130 -62
-32 -176 10 -213 78 l-20 37 21 28 c26 34 68 42 95 17 17 -16 22 -16 29 -4 15
23 12 38 -10 60 -24 24 -72 26 -106 4 -57 -38 -72 -122 -34 -199 31 -64 72
-90 140 -89 66 1 101 18 157 76 57 58 83 118 83 193 0 94 -24 133 -165 270
-142 138 -166 177 -172 290 -4 58 -1 76 16 103 27 41 77 72 120 72 98 0 192
-126 146 -197 -15 -22 -22 -25 -56 -20 -70 9 -84 37 -49 95 l20 32 -33 0 c-18
0 -38 -5 -45 -12 -30 -30 3 -131 51 -157 40 -21 90 -7 131 39 41 45 51 76 43
128 -17 105 -190 158 -315 96z"/>
<path d="M9072 2615 c-57 -30 -113 -93 -133 -152 -24 -73 9 -212 64 -271 12
-14 78 -73 147 -132 147 -126 186 -182 177 -256 -6 -53 -45 -109 -93 -131 -50
-24 -132 -4 -184 46 -46 44 -51 77 -17 109 28 26 64 28 89 5 20 -18 23 -17 32
14 15 49 -71 84 -118 48 -81 -61 -72 -203 17 -269 35 -26 126 -27 173 -3 41
21 112 100 135 150 25 57 25 148 -2 207 -13 29 -61 84 -144 165 -141 137 -165
177 -172 290 -5 81 13 121 69 155 80 49 190 -4 217 -104 16 -61 -2 -91 -56
-90 -72 1 -92 39 -52 95 l20 29 -34 0 c-41 0 -60 -20 -59 -59 1 -37 45 -107
72 -116 56 -18 128 25 156 91 20 48 17 86 -9 125 -31 48 -88 73 -172 77 -60 3
-77 0 -123 -23z"/>
<path d="M1497 2536 c-32 -14 -76 -36 -97 -51 -64 -44 -146 -137 -181 -206
-32 -61 -34 -69 -34 -169 0 -98 2 -110 32 -173 41 -85 126 -172 208 -213 48
-23 76 -30 142 -33 109 -4 170 23 257 113 181 187 191 446 25 606 -73 70 -128
95 -211 95 -59 0 -70 -3 -104 -31 -55 -44 -76 -76 -81 -127 -13 -114 62 -186
147 -142 59 31 80 123 37 163 -50 47 -137 7 -107 -49 12 -21 35 -25 45 -9 4 6
2 17 -4 24 -17 20 12 41 37 27 45 -24 35 -68 -22 -95 -32 -15 -38 -15 -65 -2
-34 18 -41 33 -41 88 0 34 7 47 39 79 34 35 44 39 88 39 123 0 227 -136 240
-317 17 -216 -117 -442 -263 -443 -226 -1 -363 375 -232 638 42 84 126 161
192 178 14 3 26 12 26 20 0 18 -5 18 -73 -10z"/>
<path d="M5387 2526 c-89 -32 -196 -135 -247 -239 -86 -175 -56 -358 82 -496
161 -160 388 -175 486 -31 19 29 23 44 20 87 -8 94 -83 156 -170 139 -103 -19
-124 -161 -30 -197 50 -19 114 48 82 86 -18 22 -29 19 -40 -11 -8 -20 -16 -25
-38 -22 -22 2 -28 9 -30 33 -3 19 2 33 14 42 24 17 78 16 114 -2 86 -44 78
-136 -17 -192 -142 -83 -318 25 -373 226 -14 54 -15 216 0 290 12 66 50 151
86 194 93 113 237 102 312 -23 27 -45 32 -64 32 -115 0 -114 -54 -161 -174
-153 -112 8 -186 56 -171 111 19 67 54 87 88 49 23 -25 21 -37 -9 -61 -25 -19
-25 -20 -5 -31 38 -20 81 20 81 74 0 32 -43 56 -101 56 -33 0 -47 -6 -75 -34
-68 -68 -34 -158 70 -185 64 -16 194 -14 247 4 94 32 159 114 159 199 0 35 -7
54 -33 88 -38 50 -112 103 -165 118 -51 14 -150 12 -195 -4z"/>
<path d="M1950 1583 c-130 -28 -347 -60 -460 -68 -207 -14 -210 -15 -210 -39
0 -22 3 -23 49 -18 57 5 48 19 85 -143 53 -233 81 -426 111 -755 21 -230 25
-208 -37 -212 -45 -3 -53 -6 -56 -24 -3 -22 -2 -22 120 -17 84 4 172 0 277
-12 231 -26 307 -11 384 74 56 62 81 117 81 183 1 49 -3 61 -27 86 -29 30 -84
52 -131 52 -68 0 -146 -81 -146 -152 0 -30 7 -46 29 -69 36 -36 54 -36 87 -4
30 30 31 88 1 93 -14 3 -17 -1 -12 -21 9 -33 -10 -43 -40 -23 -17 11 -25 26
-25 46 0 43 31 70 81 70 33 0 47 -6 75 -34 31 -31 34 -39 34 -93 0 -79 -23
-115 -86 -137 -37 -12 -88 -16 -234 -16 -103 0 -214 3 -246 6 l-59 6 -1 233 0
232 150 12 c83 7 180 17 216 24 l65 12 3 39 c3 34 1 38 -15 31 -63 -25 -391
-71 -415 -58 -5 2 -8 46 -9 96 0 51 -6 182 -13 292 -7 110 -13 201 -12 202 1
1 75 6 166 12 91 6 189 14 218 17 l53 6 -3 -106 c-3 -104 -3 -106 20 -106 21
0 22 4 23 68 0 37 6 104 13 150 6 46 10 84 7 86 -4 1 -53 -8 -111 -21z"/>
<path d="M5186 1309 c-58 -46 -72 -118 -31 -163 28 -30 55 -33 78 -8 27 29 21
42 -14 35 -35 -7 -49 6 -49 49 0 39 31 54 80 39 48 -14 70 -48 70 -106 0 -70
-40 -174 -149 -392 l-99 -198 -21 75 c-76 261 -128 416 -165 495 -66 136 -59
132 -136 97 -36 -16 -89 -37 -117 -46 -52 -17 -53 -17 -84 5 -98 70 -227 4
-304 -156 l-34 -70 -3 128 -3 128 -35 -26 c-46 -35 -132 -78 -197 -99 -29 -10
-53 -21 -53 -25 0 -19 17 -18 76 4 35 13 66 21 68 17 9 -14 54 -206 80 -337
34 -170 56 -319 56 -377 l0 -47 -57 -6 c-32 -3 -67 -7 -78 -8 -13 -1 -21 -11
-23 -26 -4 -23 -2 -23 50 -17 118 15 378 105 378 131 -1 32 -17 35 -62 10 -55
-31 -158 -67 -158 -56 0 5 -7 100 -15 212 -22 309 -22 326 9 387 82 163 230
211 326 107 48 -51 24 -164 -43 -205 -65 -40 -131 -13 -131 54 0 43 33 83 59
72 14 -5 16 -14 12 -41 -6 -40 1 -43 33 -17 30 24 21 68 -16 82 -49 19 -82 12
-125 -27 -38 -35 -41 -40 -36 -78 4 -28 15 -48 38 -69 29 -26 37 -28 90 -24
71 5 122 40 157 109 19 37 22 55 19 109 -3 36 -8 75 -12 87 -6 18 -2 23 27 31
18 5 40 13 48 16 35 15 201 -289 298 -547 l48 -128 -48 -142 c-77 -224 -138
-317 -209 -317 -65 0 -128 87 -100 139 12 21 74 46 91 36 18 -11 11 -64 -10
-77 -28 -18 -25 -28 9 -28 38 0 81 35 81 66 0 83 -144 87 -213 5 -31 -37 -33
-60 -11 -102 19 -37 83 -69 139 -69 47 0 130 37 162 71 31 34 66 118 97 230
39 144 66 211 196 479 123 255 133 280 150 369 9 48 8 60 -11 97 -36 76 -118
106 -173 63z"/>
<path d="M2804 1240 c-81 -40 -134 -122 -134 -207 0 -43 5 -59 33 -94 45 -59
76 -68 135 -37 61 31 92 77 92 135 0 54 -13 81 -46 93 -51 20 -116 -42 -81
-77 17 -17 37 -10 37 13 0 19 35 18 54 -2 35 -34 10 -74 -57 -92 -68 -19 -101
6 -112 84 -7 48 9 81 54 111 70 47 170 23 225 -55 94 -133 -13 -460 -226 -688
l-62 -65 -96 283 c-54 156 -114 321 -134 367 -20 47 -35 90 -32 97 3 7 23 23
45 36 45 25 45 26 31 48 -8 13 -13 13 -37 -3 -72 -45 -162 -93 -222 -117 -67
-27 -76 -36 -62 -58 6 -11 16 -10 50 4 34 13 44 14 57 3 55 -45 305 -550 354
-716 7 -24 16 -43 19 -42 10 1 127 139 191 224 79 105 155 260 181 364 39 157
12 300 -72 376 -34 31 -46 35 -92 35 -32 0 -68 -8 -93 -20z"/>
<path d="M6510 1224 c-30 -13 -80 -28 -110 -35 -79 -16 -80 -17 -74 -34 5 -12
17 -14 59 -9 l52 6 17 -88 c27 -152 46 -341 53 -537 l6 -189 -62 3 c-45 2 -65
-1 -71 -11 -5 -8 -6 -18 -4 -22 8 -12 176 -10 232 3 42 10 49 15 44 31 -4 17
-11 19 -41 13 -20 -3 -44 -8 -53 -11 -14 -4 -16 1 -12 28 2 18 11 132 20 253
13 182 20 229 39 276 73 182 210 275 328 226 41 -18 99 -82 134 -149 25 -48
28 -65 31 -181 7 -212 -27 -368 -94 -435 -27 -27 -39 -32 -78 -32 -33 0 -52 6
-66 20 -40 40 -15 150 35 150 29 0 39 -14 31 -46 -4 -15 -13 -24 -27 -24 -11
0 -17 -4 -14 -10 11 -17 64 -11 85 10 44 44 16 90 -58 98 -44 4 -58 1 -91 -21
-67 -44 -68 -111 -2 -170 77 -70 152 -59 246 37 159 162 214 418 129 591 -36
72 -125 158 -196 190 -76 34 -169 36 -233 5 -58 -28 -120 -98 -157 -176 -16
-35 -32 -64 -34 -64 -3 0 -3 26 0 58 3 31 8 105 11 165 7 122 11 118 -75 81z"/>
<path d="M5810 1171 c-113 -35 -244 -151 -301 -266 -32 -66 -34 -75 -34 -175
0 -95 3 -111 28 -162 34 -70 110 -155 175 -197 62 -40 161 -65 226 -57 149 17
302 176 342 354 31 139 0 255 -95 355 -63 67 -131 105 -202 113 -45 5 -61 2
-98 -18 -62 -33 -102 -86 -108 -142 -7 -58 1 -87 33 -125 21 -25 33 -31 66
-31 32 0 47 7 74 34 29 29 34 41 34 79 0 37 -5 49 -26 66 -41 33 -93 23 -106
-19 -8 -22 10 -50 32 -50 25 0 33 15 15 30 -19 16 -10 30 20 30 15 0 29 -9 36
-21 9 -18 7 -26 -8 -48 -50 -65 -135 -43 -141 37 -9 118 118 181 223 111 83
-55 145 -198 145 -332 0 -130 -62 -274 -150 -350 -130 -111 -307 -22 -373 187
-31 100 -31 266 1 347 45 113 119 197 200 224 61 21 54 44 -8 26z"/>
<path d="M3528 1156 c-109 -39 -209 -135 -267 -256 -34 -71 -36 -80 -36 -181
0 -101 1 -108 38 -181 89 -180 286 -284 452 -238 131 37 185 173 104 265 -81
91 -224 52 -224 -62 0 -38 5 -49 30 -69 36 -29 65 -30 95 -6 25 21 30 69 9 83
-21 13 -29 11 -29 -10 0 -25 -22 -41 -47 -35 -27 7 -35 27 -23 59 17 45 99 46
155 1 24 -19 30 -31 30 -64 0 -81 -75 -137 -180 -136 -212 1 -336 275 -259
571 28 109 104 211 171 234 118 39 243 -58 251 -195 4 -70 -15 -117 -61 -150
-56 -41 -219 -16 -271 42 -23 26 -16 80 14 107 16 15 25 16 44 7 41 -18 38
-70 -6 -84 -19 -7 1 -28 27 -28 28 0 65 43 65 76 0 34 -45 64 -96 64 -100 0
-157 -119 -87 -182 41 -37 95 -52 193 -52 78 0 105 4 147 23 126 56 177 187
109 279 -77 105 -235 158 -348 118z"/>
<path d="M7698 1155 c-118 -43 -239 -177 -283 -313 -23 -73 -17 -206 14 -285
32 -82 132 -186 219 -229 158 -78 346 -31 380 94 17 64 -10 139 -64 174 -32
21 -103 23 -138 4 -34 -17 -56 -58 -56 -100 0 -39 47 -90 82 -90 48 0 86 68
56 98 -18 18 -25 15 -32 -12 -6 -26 -28 -39 -51 -30 -23 9 -28 43 -10 71 15
23 22 25 64 21 108 -11 152 -104 82 -174 -91 -92 -228 -80 -329 30 -77 84
-109 196 -99 349 17 256 149 417 301 367 79 -26 146 -120 146 -205 0 -58 -32
-120 -71 -141 -93 -48 -279 6 -279 80 0 79 79 118 97 48 4 -19 1 -30 -16 -43
-26 -21 -20 -39 13 -39 38 0 74 57 60 94 -9 23 -56 46 -94 46 -64 0 -120 -56
-120 -120 0 -108 249 -157 402 -79 79 40 127 139 106 217 -14 53 -101 134
-172 161 -65 24 -152 27 -208 6z"/>
<path d="M800 1075 c0 -40 -1 -40 -42 -19 -25 13 -32 14 -39 2 -15 -24 -10
-33 36 -58 43 -24 45 -26 45 -71 0 -46 -2 -48 -46 -73 l-46 -26 -38 20 c-38
19 -39 22 -42 77 -3 50 -6 58 -23 58 -16 0 -21 -8 -23 -42 l-3 -42 -35 17
c-31 14 -36 14 -44 2 -15 -23 -12 -28 22 -46 l31 -16 -31 -20 c-36 -22 -36
-22 -22 -48 10 -18 12 -18 57 10 l46 30 41 -23 c39 -21 41 -25 44 -74 3 -51 2
-53 -36 -78 l-39 -25 -48 26 c-47 27 -48 27 -62 8 -12 -17 -12 -20 3 -29 9 -5
25 -17 37 -26 19 -15 19 -16 -12 -35 -28 -18 -30 -22 -17 -40 14 -18 15 -18
45 -1 l31 18 0 -35 c0 -33 3 -36 28 -36 26 0 27 1 24 53 -4 52 -3 54 36 79
l39 26 39 -22 c35 -20 39 -26 42 -68 3 -45 2 -46 -43 -72 -67 -40 -54 -87 14
-51 l31 16 0 -41 c0 -37 2 -41 23 -38 18 2 23 10 25 40 l3 38 31 -16 c67 -35
79 13 13 52 -43 25 -45 28 -45 72 0 45 2 48 45 71 45 24 46 24 85 6 l40 -18 0
-59 c0 -55 1 -58 25 -58 23 0 25 4 25 40 0 45 0 46 40 25 27 -14 30 -14 40 4
14 27 14 27 -21 42 l-32 12 34 28 c31 26 33 29 18 44 -15 16 -20 15 -58 -11
l-42 -27 -45 21 c-44 22 -44 22 -44 76 0 51 2 55 38 79 l39 25 47 -30 c27 -16
49 -28 51 -26 1 2 7 12 13 24 9 18 6 23 -24 39 -39 21 -43 31 -15 40 32 10 41
28 26 49 -13 18 -16 18 -39 2 -33 -21 -36 -20 -36 7 0 31 -14 50 -36 45 -15
-3 -18 -11 -15 -55 2 -50 1 -52 -37 -78 l-40 -26 -41 21 c-39 20 -41 22 -41
69 0 47 1 49 45 72 46 24 51 33 36 57 -7 12 -14 11 -39 -2 -41 -21 -42 -21
-42 19 0 31 -3 35 -25 35 -22 0 -25 -4 -25 -35z"/>
<path d="M8740 1075 c0 -39 -4 -41 -40 -20 -18 9 -29 10 -37 3 -23 -19 -14
-34 32 -56 44 -21 45 -23 45 -71 0 -48 -1 -50 -45 -76 l-45 -26 -40 22 c-39
22 -40 24 -40 79 0 53 -2 57 -22 55 -19 -1 -23 -8 -26 -43 l-3 -42 -30 16
c-24 12 -34 13 -45 3 -21 -17 -17 -27 18 -45 31 -16 31 -17 12 -31 -10 -8 -25
-18 -33 -22 -12 -7 -12 -11 1 -29 14 -21 14 -21 59 9 l46 29 41 -22 c41 -23
42 -24 42 -78 0 -52 -2 -56 -36 -78 l-35 -23 -50 28 c-42 24 -51 26 -59 13
-16 -26 -11 -36 27 -54 l37 -18 -32 -20 c-36 -23 -36 -22 -21 -49 10 -19 10
-19 38 0 32 23 41 19 41 -21 0 -24 4 -28 26 -28 26 0 26 1 20 53 l-6 52 41 26
41 26 39 -21 c37 -20 39 -23 39 -72 0 -49 0 -50 -45 -72 -47 -23 -51 -28 -35
-52 8 -12 13 -12 44 2 l35 17 3 -37 c2 -30 7 -38 26 -40 20 -3 22 1 22 37 0
44 6 49 36 26 26 -20 41 -19 54 5 9 17 5 22 -40 45 l-51 26 3 45 c3 43 6 47
51 72 l47 27 37 -21 c36 -21 37 -22 34 -78 -2 -54 -2 -56 23 -56 22 0 26 5 27
33 1 17 1 35 0 40 -2 10 6 9 41 -9 25 -13 32 -14 39 -2 14 22 10 34 -16 48
-24 13 -34 30 -17 30 4 0 17 8 29 18 19 15 20 19 8 35 -13 18 -16 18 -62 -8
l-48 -27 -38 22 c-35 21 -37 24 -37 75 0 48 3 56 29 74 37 27 43 26 96 -5 l44
-25 11 21 c6 12 10 23 8 25 -2 1 -18 12 -37 23 l-35 21 32 18 c35 20 40 34 17
53 -11 9 -19 8 -37 -4 -32 -23 -38 -20 -38 19 0 31 -3 35 -25 35 -24 0 -25 -3
-25 -58 0 -57 -1 -59 -40 -81 l-39 -22 -41 26 c-36 23 -40 29 -40 66 0 34 4
42 31 57 63 34 72 45 56 66 -14 19 -16 19 -40 3 -38 -25 -47 -21 -47 18 0 31
-3 35 -25 35 -22 0 -25 -4 -25 -35z"/>
</g>
</svg>
