<?xml version="1.0" standalone="no"?>
<!DOCTYPE svg PUBLIC "-//W3C//DTD SVG 20010904//EN"
 "http://www.w3.org/TR/2001/REC-SVG-20010904/DTD/svg10.dtd">
<svg version="1.0" xmlns="http://www.w3.org/2000/svg"
 width="1280.000000pt" height="1150.000000pt" viewBox="0 0 1280.000000 1150.000000"
 preserveAspectRatio="xMidYMid meet">
<metadata>
Created by potrace 1.15, written by Peter Selinger 2001-2017
</metadata>
<g transform="translate(0.000000,1150.000000) scale(0.100000,-0.100000)"
fill="#000000" stroke="none">
<path d="M3315 11475 c-33 -32 -31 -55 8 -93 39 -38 65 -40 118 -10 47 26 55
47 35 86 -25 49 -120 59 -161 17z"/>
<path d="M8580 11487 c-13 -7 -31 -24 -40 -39 -14 -26 -13 -29 20 -63 41 -42
83 -46 135 -12 43 27 50 48 31 85 -21 41 -94 55 -146 29z"/>
<path d="M9808 11419 c-35 -20 -40 -46 -18 -88 23 -46 45 -56 106 -46 53 8 79
38 68 80 -11 46 -111 80 -156 54z"/>
<path d="M8775 11375 c-85 -41 -115 -78 -115 -140 0 -49 9 -62 79 -109 101
-68 165 -47 197 62 24 80 15 159 -20 189 -35 30 -77 29 -141 -2z"/>
<path d="M3499 11362 c-62 -32 -99 -80 -99 -129 0 -49 12 -66 81 -112 75 -50
114 -53 151 -13 28 29 58 116 58 167 0 45 -19 94 -40 105 -34 18 -96 11 -151
-18z"/>
<path d="M4542 11367 c-27 -29 -27 -43 -2 -85 27 -45 61 -56 119 -39 35 9 48
19 55 39 12 35 -12 73 -60 93 -52 21 -87 19 -112 -8z"/>
<path d="M3223 11345 c-42 -18 -67 -57 -59 -91 10 -37 50 -74 81 -74 26 0 115
63 115 82 0 11 -87 98 -98 98 -4 -1 -21 -7 -39 -15z"/>
<path d="M8472 11333 c-46 -22 -67 -66 -51 -104 15 -37 45 -59 80 -59 27 0
102 52 113 78 6 14 -80 101 -99 101 -5 0 -25 -7 -43 -16z"/>
<path d="M9670 11313 c-29 -11 -60 -47 -60 -70 0 -35 25 -77 52 -90 18 -8 35
-6 76 10 30 11 56 26 59 32 2 7 -9 37 -25 66 -24 45 -34 54 -58 56 -16 1 -36
-1 -44 -4z"/>
<path d="M4410 11283 c-55 -20 -77 -85 -44 -131 29 -41 49 -45 114 -21 33 12
60 26 60 32 0 22 -50 115 -66 121 -18 7 -43 7 -64 -1z"/>
<path d="M9925 11254 c-21 -8 -49 -24 -62 -36 -26 -24 -45 -81 -36 -106 13
-39 84 -120 117 -136 33 -16 38 -16 70 -1 76 36 143 204 103 256 -31 41 -116
51 -192 23z"/>
<path d="M2145 11225 c-47 -17 -65 -38 -65 -77 0 -21 8 -33 33 -48 57 -35 100
-24 141 37 23 33 24 38 11 63 -22 43 -52 49 -120 25z"/>
<path d="M4673 11209 c-52 -12 -100 -58 -109 -104 -5 -28 -1 -44 24 -83 37
-56 78 -97 109 -106 63 -19 172 108 176 205 3 78 -83 116 -200 88z"/>
<path d="M2347 11171 c-63 -41 -102 -102 -101 -158 1 -67 45 -103 151 -122 98
-19 140 31 130 150 -12 146 -78 194 -180 130z"/>
<path d="M3303 11150 c-45 -27 -54 -48 -38 -87 11 -25 23 -34 56 -43 54 -15
80 -8 102 29 23 39 22 41 -19 84 -41 42 -56 45 -101 17z"/>
<path d="M8551 11134 c-38 -32 -40 -66 -6 -99 52 -53 155 -21 155 47 0 34 -51
78 -90 78 -16 0 -42 -11 -59 -26z"/>
<path d="M7383 11099 c-78 -38 -77 -120 2 -135 53 -10 79 2 109 46 32 48 33
74 4 94 -30 22 -65 20 -115 -5z"/>
<path d="M9715 11107 c-49 -16 -67 -37 -61 -71 8 -40 20 -52 72 -70 43 -14 45
-14 74 11 36 30 37 49 8 93 -28 40 -53 50 -93 37z"/>
<path d="M7609 11086 c-52 -35 -99 -110 -99 -157 0 -85 39 -118 154 -126 62
-5 74 -3 98 16 36 29 44 83 23 162 -22 88 -55 129 -103 129 -23 0 -51 -9 -73
-24z"/>
<path d="M4423 11065 c-65 -28 -51 -95 27 -130 38 -17 45 -17 68 -4 46 26 50
44 22 97 -21 39 -30 47 -55 49 -16 2 -44 -4 -62 -12z"/>
<path d="M2039 11021 c-53 -53 -31 -127 43 -145 38 -9 54 0 88 51 38 57 38 71
-4 88 -19 8 -37 19 -41 25 -12 20 -57 10 -86 -19z"/>
<path d="M10962 10994 c-24 -17 -28 -45 -11 -93 14 -41 35 -51 102 -51 59 0
67 7 67 59 0 40 -71 101 -117 101 -10 0 -29 -7 -41 -16z"/>
<path d="M10785 10938 c-51 -27 -61 -89 -22 -134 22 -25 25 -26 87 -18 72 10
70 7 53 94 -6 32 -15 48 -33 57 -31 16 -59 16 -85 1z"/>
<path d="M9184 10930 c-26 -10 -44 -57 -34 -86 10 -26 53 -54 84 -54 34 0 89
64 80 93 -16 53 -69 72 -130 47z"/>
<path d="M3910 10913 c-48 -19 -53 -80 -9 -117 41 -35 69 -33 107 7 36 37 39
57 16 92 -13 20 -24 25 -58 24 -22 0 -48 -3 -56 -6z"/>
<path d="M7311 10896 c-12 -13 -25 -41 -28 -63 -7 -54 27 -86 88 -81 42 3 45
6 72 56 16 29 27 59 24 66 -5 13 -92 46 -120 46 -7 0 -24 -11 -36 -24z"/>
<path d="M2193 10878 c-32 -35 -41 -61 -32 -85 15 -40 54 -51 121 -33 29 8 39
18 48 44 14 43 7 59 -36 79 -47 23 -77 21 -101 -5z"/>
<path d="M9402 10869 c-34 -13 -71 -44 -99 -81 -34 -47 -33 -130 3 -163 34
-32 104 -65 135 -65 59 0 97 97 79 204 -16 102 -51 132 -118 105z"/>
<path d="M2870 10852 c-63 -31 -73 -99 -18 -128 44 -23 79 -14 105 25 30 45
29 75 -3 100 -32 25 -39 25 -84 3z"/>
<path d="M3080 10847 c-39 -20 -88 -92 -95 -141 -9 -57 17 -115 60 -135 17 -8
58 -17 91 -19 55 -4 63 -2 78 19 38 55 5 213 -55 264 -34 28 -44 30 -79 12z"/>
<path d="M4126 10845 c-73 -26 -126 -94 -126 -165 0 -57 11 -74 75 -110 108
-62 156 -27 163 117 5 136 -30 186 -112 158z"/>
<path d="M5685 10827 c-15 -11 -17 -23 -12 -63 6 -58 29 -80 94 -90 41 -6 49
-4 65 16 29 36 23 69 -22 112 -44 41 -89 50 -125 25z"/>
<path d="M8349 10813 c-65 -55 -88 -157 -49 -221 23 -37 49 -49 125 -58 49 -6
56 -4 80 21 25 24 27 31 22 82 -10 97 -77 203 -128 203 -9 0 -32 -12 -50 -27z"/>
<path d="M8148 10812 c-61 -37 -53 -111 13 -131 53 -16 80 1 98 59 12 39 11
44 -10 66 -26 28 -62 30 -101 6z"/>
<path d="M5503 10800 c-46 -19 -57 -89 -22 -134 18 -23 27 -26 84 -26 l64 0
-1 66 c-1 55 -5 68 -23 80 -29 19 -75 25 -102 14z"/>
<path d="M10973 10791 c-18 -11 -39 -34 -48 -51 -15 -28 -15 -36 -1 -83 30
-102 80 -154 135 -142 73 16 171 126 171 193 0 55 -61 93 -160 99 -53 3 -71 0
-97 -16z"/>
<path d="M7482 10778 c-5 -7 -17 -28 -27 -47 -16 -32 -16 -35 3 -60 22 -30 40
-35 89 -26 47 9 73 37 73 81 0 31 -4 37 -35 50 -42 17 -89 18 -103 2z"/>
<path d="M9108 10753 c-43 -50 -45 -87 -5 -130 33 -37 70 -30 106 19 17 23 31
47 31 53 0 17 -76 75 -98 75 -10 0 -26 -8 -34 -17z"/>
<path d="M3827 10735 c-34 -35 -41 -68 -22 -106 15 -28 49 -49 79 -49 14 0 76
84 76 104 0 7 -12 19 -26 26 -14 8 -30 22 -35 32 -14 25 -42 22 -72 -7z"/>
<path d="M10753 10730 c-25 -10 -39 -60 -24 -89 16 -29 65 -61 94 -61 14 0 35
8 47 18 19 16 21 24 15 61 -4 24 -16 52 -26 62 -20 20 -68 24 -106 9z"/>
<path d="M10209 10704 c-28 -33 -30 -55 -9 -89 32 -52 61 -57 115 -22 27 17
35 29 35 53 0 47 -20 66 -76 71 -39 4 -52 1 -65 -13z"/>
<path d="M2821 10654 c-50 -63 -11 -149 64 -142 35 3 39 6 57 56 22 60 19 68
-34 87 -18 7 -40 15 -49 19 -11 5 -23 -1 -38 -20z"/>
<path d="M4902 10625 c-28 -35 -27 -44 1 -86 28 -42 53 -46 106 -19 34 17 41
26 41 49 0 43 -28 70 -81 77 -42 6 -48 4 -67 -21z"/>
<path d="M5673 10624 c-18 -9 -40 -28 -49 -42 -15 -22 -15 -33 -5 -92 28 -155
101 -185 224 -95 122 91 113 184 -23 228 -65 21 -106 21 -147 1z"/>
<path d="M8126 10618 c-44 -63 0 -152 71 -146 35 3 37 5 50 53 7 28 12 56 10
64 -2 11 -87 51 -109 51 -4 0 -14 -10 -22 -22z"/>
<path d="M1306 10580 c-36 -32 -69 -93 -80 -149 -4 -25 0 -46 14 -77 27 -54
60 -69 137 -59 143 18 173 67 115 190 -32 68 -90 125 -127 125 -13 0 -40 -14
-59 -30z"/>
<path d="M9228 10598 c-23 -20 -48 -60 -48 -81 0 -25 47 -69 68 -64 9 3 29 8
44 11 19 4 30 16 39 43 11 36 11 38 -24 70 -40 36 -55 40 -79 21z"/>
<path d="M5430 10581 c-18 -35 -11 -69 22 -107 29 -33 36 -36 71 -31 22 3 44
11 48 19 16 25 10 85 -12 112 -17 22 -28 26 -69 26 -39 0 -52 -4 -60 -19z"/>
<path d="M10365 10581 c-86 -39 -125 -125 -88 -191 24 -42 97 -100 125 -100
78 0 156 232 98 290 -25 25 -81 26 -135 1z"/>
<path d="M3926 10559 c-49 -58 -24 -119 49 -119 34 0 47 5 59 22 25 36 20 73
-15 102 -40 34 -62 33 -93 -5z"/>
<path d="M10107 10569 c-9 -5 -24 -24 -33 -40 -26 -52 8 -119 61 -119 23 0 95
60 95 80 0 9 -9 25 -20 35 -11 10 -22 26 -25 36 -7 21 -48 25 -78 8z"/>
<path d="M1079 10527 c-45 -34 -60 -65 -49 -107 5 -19 15 -26 48 -33 63 -12
92 6 116 72 l20 54 -28 23 c-36 32 -56 30 -107 -9z"/>
<path d="M2976 10531 c-27 -30 -35 -72 -19 -103 18 -37 54 -45 95 -21 29 17
33 24 33 63 0 41 -3 46 -35 62 -45 22 -53 22 -74 -1z"/>
<path d="M2082 10515 c-29 -21 -56 -113 -47 -166 4 -25 19 -53 40 -74 28 -30
39 -35 77 -35 98 0 148 27 148 78 0 74 -109 212 -168 212 -15 0 -37 -7 -50
-15z"/>
<path d="M4779 10491 c-19 -19 -29 -40 -29 -59 0 -32 33 -82 55 -82 20 0 105
53 105 65 0 5 -10 31 -22 58 -19 40 -27 47 -51 47 -18 0 -39 -11 -58 -29z"/>
<path d="M8286 10498 c-26 -42 -27 -74 -5 -102 26 -33 67 -34 103 -1 43 40 31
94 -25 114 -45 16 -57 14 -73 -11z"/>
<path d="M5035 10491 c-52 -24 -80 -56 -95 -107 -15 -49 -8 -65 52 -130 51
-55 81 -58 125 -11 43 45 74 111 80 172 5 44 2 56 -16 74 -27 27 -90 28 -146
2z"/>
<path d="M1879 10441 c-53 -53 -34 -118 38 -128 55 -7 83 19 83 80 0 78 -65
104 -121 48z"/>
<path d="M6742 10410 c-44 -41 -77 -141 -66 -198 10 -48 57 -92 98 -92 107 0
196 47 196 104 0 41 -38 112 -86 161 -36 38 -49 45 -82 45 -25 0 -46 -7 -60
-20z"/>
<path d="M7417 10392 c-59 -66 -46 -203 25 -253 24 -18 39 -20 78 -16 50 6
109 31 122 51 30 45 -23 146 -106 203 -53 37 -95 42 -119 15z"/>
<path d="M10150 10360 c-27 -25 -31 -35 -25 -57 10 -41 22 -51 68 -58 37 -7
43 -5 64 21 29 37 29 49 -3 91 -32 42 -62 43 -104 3z"/>
<path d="M6511 10315 c-44 -48 -48 -60 -29 -100 10 -22 17 -25 63 -25 63 0 79
15 95 85 10 46 10 51 -11 67 -37 31 -72 23 -118 -27z"/>
<path d="M1061 10318 c-55 -59 -29 -140 47 -146 63 -5 77 8 91 79 7 34 9 65 4
69 -4 4 -34 10 -65 14 -50 5 -60 4 -77 -16z"/>
<path d="M4823 10304 c-25 -19 -33 -33 -33 -59 0 -40 17 -55 68 -62 34 -5 42
-2 60 22 28 35 27 44 -1 86 -29 43 -53 46 -94 13z"/>
<path d="M7230 10299 c-16 -19 -33 -41 -36 -51 -7 -23 23 -78 44 -79 83 -5
117 21 109 85 -6 44 -21 62 -59 71 -23 6 -33 1 -58 -26z"/>
<path d="M1910 10251 c-32 -61 9 -131 78 -131 50 0 62 14 62 75 0 28 -5 56
-12 63 -7 7 -36 12 -65 12 -41 0 -54 -4 -63 -19z"/>
<path d="M1255 10236 c-21 -21 -26 -34 -23 -68 5 -73 66 -88 132 -33 24 19 30
31 29 61 -1 46 -11 55 -66 61 -39 5 -49 2 -72 -21z"/>
<path d="M2107 10199 c-25 -14 -24 -100 2 -123 10 -9 27 -18 37 -18 27 -2 73
31 80 56 6 26 -11 75 -28 80 -37 12 -75 13 -91 5z"/>
<path d="M11711 10184 c-12 -15 -21 -41 -21 -58 0 -59 34 -83 125 -89 28 -2
30 1 35 38 3 22 9 46 13 52 20 31 -44 83 -102 83 -20 0 -36 -8 -50 -26z"/>
<path d="M11123 10180 c-26 -23 -28 -42 -12 -88 12 -36 37 -47 87 -37 51 9 62
21 62 65 0 29 -6 41 -26 55 -42 27 -86 30 -111 5z"/>
<path d="M11936 10187 c-27 -20 -34 -102 -10 -128 20 -23 76 -49 104 -49 20 0
50 40 50 66 0 26 -52 102 -78 113 -30 14 -44 14 -66 -2z"/>
<path d="M6528 10123 c-58 -66 -4 -169 77 -149 48 12 65 40 65 106 l0 60 -63
0 c-48 0 -68 -4 -79 -17z"/>
<path d="M7282 10118 c-22 -22 -15 -86 13 -113 27 -28 80 -33 110 -11 17 12
18 20 9 72 l-9 59 -55 3 c-34 2 -60 -2 -68 -10z"/>
<path d="M10962 10080 c-29 -27 -37 -64 -22 -100 16 -39 38 -44 96 -22 53 19
56 26 37 102 -8 32 -12 35 -48 38 -30 2 -46 -3 -63 -18z"/>
<path d="M7475 10070 c-37 -41 3 -130 60 -130 23 0 75 51 75 73 0 7 -9 27 -20
45 -17 27 -25 32 -58 32 -26 0 -45 -7 -57 -20z"/>
<path d="M6728 10063 c-26 -30 -31 -87 -10 -113 29 -36 75 -31 120 13 34 34
35 38 26 74 -9 38 -9 38 -65 41 -43 2 -59 -1 -71 -15z"/>
<path d="M11192 10018 c-38 -13 -89 -67 -98 -104 -9 -34 33 -131 67 -157 24
-17 31 -18 63 -7 36 11 106 81 131 130 27 53 28 86 2 115 -19 23 -33 29 -78
31 -30 2 -69 -2 -87 -8z"/>
<path d="M11631 10011 c-26 -26 -27 -61 -1 -111 32 -63 112 -65 126 -2 3 15 7
33 10 40 7 23 -15 62 -41 72 -58 22 -73 22 -94 1z"/>
<path d="M5742 10004 c-27 -19 -30 -78 -6 -112 14 -20 23 -23 67 -20 43 3 54
7 66 29 19 35 8 70 -32 97 -39 26 -64 28 -95 6z"/>
<path d="M11855 9991 c-37 -16 -56 -48 -62 -104 -16 -159 58 -216 197 -151 62
29 98 58 111 92 33 86 -146 204 -246 163z"/>
<path d="M5603 9941 c-57 -15 -87 -75 -61 -120 13 -24 19 -26 73 -23 33 1 63
6 67 10 4 4 4 34 0 67 -6 51 -10 59 -32 65 -14 4 -35 4 -47 1z"/>
<path d="M10972 9895 c-35 -15 -56 -55 -46 -87 3 -10 21 -26 39 -35 64 -31
118 15 100 84 -13 55 -34 63 -93 38z"/>
<path d="M1286 9851 c-13 -14 -18 -36 -17 -74 1 -92 29 -139 102 -172 l39 -18
57 29 c103 53 117 105 45 173 -76 71 -190 102 -226 62z"/>
<path d="M6263 9838 c-27 -30 -35 -60 -27 -93 5 -20 20 -32 62 -51 31 -14 61
-23 67 -20 6 2 19 31 29 65 20 68 16 80 -35 107 -40 20 -72 17 -96 -8z"/>
<path d="M5780 9830 c-49 -12 -100 -70 -100 -114 0 -41 25 -113 47 -138 19
-22 64 -23 102 -3 15 7 51 39 79 69 96 105 78 174 -48 189 -25 3 -61 2 -80 -3z"/>
<path d="M6484 9822 c-29 -19 -45 -99 -26 -128 12 -19 76 -54 99 -54 25 0 53
34 53 64 0 40 -40 104 -72 115 -36 13 -39 13 -54 3z"/>
<path d="M5543 9740 c-25 -10 -43 -39 -43 -68 0 -32 58 -75 89 -67 39 10 61
35 61 69 0 64 -45 91 -107 66z"/>
<path d="M1138 9723 c-8 -10 -21 -33 -28 -51 -12 -30 -11 -36 7 -60 23 -32 53
-38 94 -21 51 21 59 68 23 127 -18 28 -74 30 -96 5z"/>
<path d="M6152 9667 c-27 -28 -27 -49 -3 -103 14 -31 26 -43 47 -47 47 -9 70
7 83 56 15 53 5 79 -39 102 -40 21 -63 19 -88 -8z"/>
<path d="M575 9646 c-37 -16 -55 -53 -62 -127 -7 -72 10 -123 51 -154 42 -32
74 -31 141 1 59 27 105 74 105 105 0 60 -99 157 -185 182 -11 3 -34 0 -50 -7z"/>
<path d="M6353 9621 c-26 -16 -33 -30 -43 -77 -16 -77 -8 -143 20 -166 33 -27
122 -24 186 6 103 48 122 105 58 175 -67 75 -158 100 -221 62z"/>
<path d="M1310 9579 c-8 -5 -32 -14 -52 -19 -38 -11 -42 -19 -39 -65 3 -26 55
-75 81 -75 32 0 70 22 76 45 5 21 -26 108 -43 118 -5 3 -15 1 -23 -4z"/>
<path d="M1443 9568 c-31 -15 -37 -40 -19 -82 35 -84 136 -59 136 33 0 47 -65
74 -117 49z"/>
<path d="M378 9518 c-26 -21 -58 -81 -58 -109 0 -15 8 -37 18 -49 15 -19 24
-22 55 -16 62 12 82 36 82 101 0 44 -4 60 -19 71 -24 17 -57 18 -78 2z"/>
<path d="M11778 9368 c-18 -14 -32 -87 -21 -104 27 -39 113 -46 137 -12 22 32
20 56 -10 95 -19 25 -32 33 -58 33 -18 0 -39 -6 -48 -12z"/>
<path d="M11579 9321 c-16 -16 -29 -40 -29 -53 0 -43 20 -57 85 -60 l59 -3 9
60 c7 51 6 61 -9 72 -32 23 -83 16 -115 -16z"/>
<path d="M490 9320 c-8 -5 -27 -10 -42 -10 -32 0 -48 -24 -48 -73 0 -82 87
-118 143 -59 27 28 27 29 14 88 -14 61 -33 77 -67 54z"/>
<path d="M650 9303 c-32 -16 -35 -22 -38 -67 -6 -87 60 -117 119 -53 40 44 46
72 22 105 -25 33 -57 38 -103 15z"/>
<path d="M11722 9183 c-57 -28 -79 -88 -63 -172 11 -53 31 -71 81 -71 81 0
210 97 210 159 0 73 -143 126 -228 84z"/>
<path d="M11491 9144 c-26 -33 -26 -34 2 -75 40 -60 119 -46 130 23 8 52 -14
78 -68 78 -35 0 -47 -5 -64 -26z"/>
<path d="M12328 9145 c-14 -14 -28 -40 -32 -58 -6 -29 -2 -36 41 -74 52 -46
72 -50 89 -15 6 12 18 30 27 40 28 30 21 66 -18 101 -43 38 -74 39 -107 6z"/>
<path d="M12528 9063 c-49 -56 -49 -92 0 -145 33 -34 43 -40 65 -34 42 10 60
46 51 102 -11 78 -77 121 -116 77z"/>
<path d="M12182 9014 c-18 -12 -22 -25 -22 -63 0 -58 21 -88 66 -97 29 -5 35
-2 58 32 34 50 33 79 -3 115 -33 32 -65 37 -99 13z"/>
<path d="M822 8955 c-57 -25 -61 -90 -9 -165 32 -48 69 -72 119 -77 39 -5 49
-2 80 26 19 16 45 50 58 75 20 37 22 48 12 70 -15 34 -45 52 -117 70 -72 19
-100 19 -143 1z"/>
<path d="M12360 8917 c-29 -14 -76 -105 -86 -165 -6 -37 -3 -44 23 -70 68 -69
269 -45 289 34 21 82 -90 214 -178 214 -13 0 -34 -6 -48 -13z"/>
<path d="M708 8775 c-35 -19 -48 -84 -23 -121 24 -36 54 -45 88 -25 59 33 65
69 22 125 -30 39 -46 43 -87 21z"/>
<path d="M1036 8716 c-39 -32 -38 -71 3 -108 25 -22 38 -27 59 -22 37 9 49 22
56 67 6 31 3 41 -18 62 -31 31 -62 31 -100 1z"/>
<path d="M863 8642 c-24 -21 -43 -46 -43 -56 0 -30 54 -76 90 -76 33 0 90 46
90 72 0 14 -77 98 -88 98 -4 -1 -26 -18 -49 -38z"/>
<path d="M175 8495 c-14 -13 -25 -34 -26 -47 -3 -59 4 -97 26 -145 26 -58 62
-83 120 -83 31 0 45 9 96 59 52 52 59 64 59 98 0 51 -45 96 -123 123 -78 27
-122 26 -152 -5z"/>
<path d="M11881 8386 c-12 -13 -23 -36 -24 -52 -2 -24 5 -32 48 -56 28 -15 55
-28 61 -28 7 0 24 25 40 56 l28 56 -27 24 c-38 33 -95 33 -126 0z"/>
<path d="M12092 8368 c-28 -36 -42 -79 -32 -97 11 -22 70 -61 92 -61 21 0 58
43 58 67 0 34 -21 83 -40 93 -26 14 -66 12 -78 -2z"/>
<path d="M35 8316 c-32 -32 -43 -107 -21 -140 25 -38 52 -41 98 -11 40 26 40
28 36 75 -9 93 -61 128 -113 76z"/>
<path d="M11754 8257 c-23 -20 -26 -28 -20 -60 13 -68 88 -91 125 -38 31 44
27 77 -11 101 -43 26 -61 25 -94 -3z"/>
<path d="M364 8205 c-41 -32 -46 -54 -23 -104 30 -68 96 -65 125 4 19 47 18
81 -6 105 -27 27 -58 25 -96 -5z"/>
<path d="M11944 8206 c-25 -11 -36 -26 -53 -72 -28 -73 -24 -111 12 -138 50
-37 187 -20 247 30 101 85 -74 237 -206 180z"/>
<path d="M215 8180 c-4 -6 -24 -22 -46 -36 -33 -20 -39 -30 -39 -58 0 -47 42
-96 82 -96 37 0 88 48 87 82 -1 26 -48 109 -66 115 -6 2 -14 -1 -18 -7z"/>
<path d="M12545 7978 c-28 -15 -55 -50 -55 -72 0 -21 59 -116 73 -116 5 0 25
14 44 30 18 17 38 30 43 30 17 0 21 39 6 73 -23 57 -68 79 -111 55z"/>
<path d="M676 7945 c-89 -31 -102 -86 -39 -156 46 -51 81 -69 135 -69 56 0 85
21 114 84 51 110 21 156 -100 156 -39 -1 -89 -7 -110 -15z"/>
<path d="M12353 7895 c-28 -20 -49 -101 -31 -123 39 -50 61 -52 111 -11 42 34
48 68 20 109 -30 44 -61 52 -100 25z"/>
<path d="M12714 7838 c-66 -36 -79 -79 -44 -148 16 -32 26 -40 48 -40 46 0 69
24 77 81 8 58 -4 91 -39 107 -15 7 -29 7 -42 0z"/>
<path d="M911 7772 c-29 -41 -27 -76 5 -101 34 -27 78 -27 105 0 17 17 20 28
14 57 -8 47 -23 61 -67 68 -31 5 -38 2 -57 -24z"/>
<path d="M12490 7753 c-23 -8 -100 -84 -116 -115 -36 -69 6 -132 108 -163 80
-23 134 -20 165 11 23 23 25 31 20 80 -7 67 -40 138 -75 162 -30 21 -78 32
-102 25z"/>
<path d="M576 7715 c-30 -27 -30 -30 -15 -76 17 -50 38 -69 75 -69 26 0 36 7
53 34 30 48 26 70 -16 105 -45 37 -62 38 -97 6z"/>
<path d="M790 7677 c-20 -24 -60 -88 -60 -97 0 -19 63 -60 92 -60 40 0 91 50
86 85 -4 33 -101 93 -118 72z"/>
<path d="M11873 7400 c-18 -11 -35 -31 -39 -45 -5 -21 1 -33 32 -65 22 -22 45
-40 53 -40 7 0 31 18 53 40 33 32 39 45 34 65 -7 26 -58 65 -86 65 -8 0 -30
-9 -47 -20z"/>
<path d="M194 7314 c-30 -14 -54 -50 -54 -78 0 -33 64 -138 98 -161 50 -34
114 -34 148 0 31 31 74 121 74 156 0 37 -32 74 -78 87 -55 17 -151 15 -188 -4z"/>
<path d="M11715 7318 c-29 -16 -35 -28 -35 -70 0 -28 6 -42 26 -57 15 -12 35
-21 46 -21 26 0 78 53 78 80 0 26 -52 80 -77 80 -10 0 -27 -6 -38 -12z"/>
<path d="M12036 7289 c-34 -39 -33 -56 5 -102 34 -41 46 -44 89 -22 28 14 30
20 30 70 0 44 -4 57 -22 69 -36 25 -73 20 -102 -15z"/>
<path d="M11826 7176 c-47 -52 -72 -110 -60 -143 13 -38 74 -65 158 -71 82 -5
118 6 142 43 24 37 5 95 -50 153 -39 41 -48 46 -99 50 -55 4 -58 3 -91 -32z"/>
<path d="M96 7089 c-22 -18 -26 -28 -26 -75 0 -45 4 -59 25 -79 34 -35 67 -32
99 9 33 43 33 73 1 116 -42 56 -58 61 -99 29z"/>
<path d="M430 7068 c-16 -22 -30 -47 -30 -54 0 -27 61 -84 89 -84 43 0 61 28
61 93 0 52 -2 58 -30 72 -44 23 -57 19 -90 -27z"/>
<path d="M268 6959 c-43 -57 -44 -59 -23 -98 17 -34 65 -56 100 -47 28 7 65
59 65 90 0 16 -84 106 -100 106 -3 0 -22 -23 -42 -51z"/>
<path d="M878 6951 c-62 -25 -105 -56 -123 -91 -20 -39 -19 -43 12 -81 51 -60
150 -86 211 -55 54 28 64 49 66 131 1 69 -1 79 -23 96 -29 24 -81 24 -143 0z"/>
<path d="M1104 6842 c-33 -22 -45 -100 -19 -122 8 -7 35 -15 59 -17 37 -5 46
-2 60 18 21 31 20 55 -5 95 -16 27 -27 34 -52 34 -18 0 -37 -4 -43 -8z"/>
<path d="M12358 6804 c-44 -23 -49 -43 -29 -109 20 -65 31 -74 64 -53 12 8 34
18 49 22 40 9 53 40 39 87 -19 63 -67 84 -123 53z"/>
<path d="M12172 6784 c-26 -18 -52 -65 -52 -94 0 -11 11 -32 24 -45 24 -24 25
-24 70 -9 55 19 70 42 61 95 -10 61 -57 85 -103 53z"/>
<path d="M776 6669 c-20 -30 -20 -53 1 -87 24 -38 43 -52 73 -52 35 0 58 26
66 77 6 37 4 43 -19 58 -15 9 -44 19 -65 22 -33 4 -42 2 -56 -18z"/>
<path d="M986 6678 c-2 -7 -8 -29 -15 -49 -17 -53 -14 -67 19 -84 56 -29 109
-11 127 42 16 47 2 76 -42 90 -53 15 -85 16 -89 1z"/>
<path d="M12475 6625 c-16 -9 -33 -22 -37 -28 -11 -17 -10 -81 2 -111 8 -22
16 -26 49 -26 46 0 76 30 87 88 14 72 -37 110 -101 77z"/>
<path d="M12225 6599 c-98 -53 -132 -98 -113 -149 29 -78 174 -157 238 -130
39 16 55 54 54 124 -2 134 -85 206 -179 155z"/>
<path d="M11585 6426 c-16 -8 -36 -24 -43 -36 -12 -20 -10 -28 22 -76 36 -54
49 -63 61 -44 4 6 24 19 46 30 26 14 39 27 39 41 0 32 -26 74 -55 87 -32 15
-33 15 -70 -2z"/>
<path d="M11386 6361 c-9 -10 -18 -38 -19 -61 -2 -35 2 -45 25 -63 27 -20 29
-20 62 -4 49 23 71 59 55 89 -31 60 -88 78 -123 39z"/>
<path d="M11760 6302 c-70 -23 -87 -74 -47 -133 19 -28 29 -34 55 -32 18 0 39
6 46 13 17 14 30 81 21 110 -7 24 -53 50 -75 42z"/>
<path d="M11505 6222 c-41 -25 -93 -87 -101 -118 -15 -60 83 -126 197 -132 58
-4 70 -1 88 17 36 36 24 121 -26 188 -42 57 -108 76 -158 45z"/>
<path d="M602 6216 c-61 -15 -100 -41 -122 -80 -14 -25 -13 -30 11 -73 16 -29
45 -61 75 -81 44 -30 55 -34 101 -30 28 3 59 10 68 18 24 20 58 144 51 185
-12 62 -85 86 -184 61z"/>
<path d="M800 6010 c-27 -54 -26 -84 7 -109 42 -34 71 -37 99 -10 39 37 25
132 -23 150 -45 17 -62 11 -83 -31z"/>
<path d="M1274 5991 c-58 -33 -111 -89 -120 -127 -14 -54 27 -93 118 -113 58
-13 112 1 151 41 28 28 30 32 24 93 -13 135 -65 167 -173 106z"/>
<path d="M475 5948 c-24 -19 -27 -26 -22 -64 2 -24 12 -55 21 -69 19 -28 61
-43 85 -28 25 15 53 80 46 103 -6 19 -78 80 -95 80 -4 0 -20 -10 -35 -22z"/>
<path d="M1500 5915 c-6 -8 -14 -32 -17 -53 -4 -32 -1 -44 16 -61 27 -27 91
-29 113 -3 29 33 30 54 3 94 -22 33 -30 38 -64 38 -22 0 -44 -6 -51 -15z"/>
<path d="M658 5854 c-19 -39 -25 -62 -19 -73 16 -28 46 -51 79 -57 43 -9 92
38 92 89 0 30 -6 38 -51 66 -28 17 -56 31 -62 31 -7 0 -24 -26 -39 -56z"/>
<path d="M11711 5723 c-35 -43 -37 -52 -15 -95 15 -29 18 -30 62 -24 62 8 82
29 82 82 0 52 -19 74 -65 74 -27 0 -40 -8 -64 -37z"/>
<path d="M1427 5743 c-2 -4 -8 -33 -11 -65 -7 -51 -5 -57 16 -72 23 -16 64
-21 93 -10 36 14 57 95 33 126 -14 17 -123 35 -131 21z"/>
<path d="M11935 5741 c-44 -18 -54 -42 -46 -104 4 -31 11 -60 14 -64 4 -3 24
-1 46 5 21 7 48 12 59 12 38 0 54 62 31 114 -7 14 -25 30 -42 36 -34 12 -35
12 -62 1z"/>
<path d="M1220 5691 c-17 -33 -11 -65 18 -100 22 -27 35 -34 62 -33 42 1 60
19 67 69 8 57 -19 83 -87 83 -38 0 -52 -4 -60 -19z"/>
<path d="M11755 5561 c-95 -34 -125 -61 -125 -112 0 -59 133 -179 198 -179 60
0 92 51 92 150 0 72 -18 113 -63 140 -39 24 -39 24 -102 1z"/>
<path d="M12010 5543 c-38 -14 -50 -36 -50 -89 0 -59 14 -74 68 -74 31 0 72
41 86 87 7 22 -8 62 -28 75 -13 9 -54 9 -76 1z"/>
<path d="M11100 5503 c-26 -10 -50 -35 -50 -53 0 -10 9 -38 20 -64 24 -53 34
-55 100 -23 42 21 45 25 44 62 -2 61 -57 99 -114 78z"/>
<path d="M10891 5453 c-33 -40 -37 -71 -14 -101 26 -35 61 -38 103 -9 29 19
35 29 34 55 -4 79 -79 112 -123 55z"/>
<path d="M11213 5330 c-37 -22 -42 -49 -19 -104 18 -42 29 -49 70 -42 57 11
87 105 46 146 -25 25 -56 25 -97 0z"/>
<path d="M10958 5284 c-54 -36 -88 -77 -88 -108 0 -31 70 -94 126 -116 137
-51 200 -7 173 120 -12 59 -49 107 -96 126 -46 20 -54 18 -115 -22z"/>
<path d="M1134 5209 c-52 -20 -109 -67 -119 -99 -18 -57 103 -160 188 -160 42
0 99 37 108 70 4 14 7 55 8 91 1 90 -20 119 -87 118 -26 0 -70 -9 -98 -20z"/>
<path d="M1855 5111 c-46 -29 -102 -92 -120 -135 -33 -78 23 -126 146 -126 58
0 64 2 100 39 44 43 48 68 25 146 -27 90 -84 118 -151 76z"/>
<path d="M1354 5045 c-26 -64 -16 -93 44 -125 33 -16 69 -5 86 28 12 23 12 33
1 65 -19 55 -33 67 -77 67 -35 0 -40 -3 -54 -35z"/>
<path d="M2076 5054 c-27 -15 -28 -19 -23 -67 5 -59 24 -77 78 -77 29 0 42 6
58 26 29 37 26 61 -13 100 -37 37 -57 41 -100 18z"/>
<path d="M1041 4924 c-25 -32 -26 -45 -5 -87 25 -50 45 -67 75 -67 35 0 56 21
65 64 9 50 -3 74 -46 96 -51 26 -64 25 -89 -6z"/>
<path d="M1245 4898 c-3 -13 -11 -40 -17 -62 -11 -36 -11 -40 16 -62 63 -55
151 -15 144 65 -3 32 -9 39 -48 58 -59 29 -87 29 -95 1z"/>
<path d="M2013 4858 c-5 -7 -7 -38 -5 -70 3 -51 6 -57 33 -69 46 -18 90 -2
112 43 16 33 17 40 3 72 -15 36 -16 36 -74 36 -36 0 -63 -5 -69 -12z"/>
<path d="M11130 4784 c-36 -33 -41 -42 -36 -67 9 -46 24 -57 76 -57 55 0 75
17 85 70 8 42 -14 75 -57 85 -21 5 -34 -1 -68 -31z"/>
<path d="M1820 4791 c-21 -39 -12 -78 23 -105 39 -30 73 -33 106 -10 20 15 23
23 18 62 -6 56 -26 72 -89 72 -37 0 -50 -4 -58 -19z"/>
<path d="M11323 4758 c-17 -8 -22 -21 -25 -67 -2 -31 -2 -62 0 -68 3 -9 26
-13 68 -13 61 0 64 1 80 31 20 40 11 93 -19 114 -24 17 -72 19 -104 3z"/>
<path d="M10485 4630 c-43 -17 -49 -36 -35 -96 15 -62 27 -71 68 -56 15 6 39
13 53 16 34 7 44 44 25 91 -20 47 -64 65 -111 45z"/>
<path d="M10281 4609 c-11 -12 -25 -34 -32 -51 -10 -25 -9 -33 8 -56 11 -15
29 -28 40 -30 28 -4 92 23 99 43 9 22 -4 82 -22 100 -22 22 -70 19 -93 -6z"/>
<path d="M11131 4614 c-64 -18 -100 -40 -111 -70 -30 -77 122 -241 204 -220
35 9 64 55 78 120 14 73 -7 135 -56 166 -38 23 -42 23 -115 4z"/>
<path d="M11370 4552 c-16 -13 -24 -32 -27 -68 -6 -56 4 -70 53 -80 25 -5 36
0 67 32 41 42 47 75 21 112 -19 28 -82 30 -114 4z"/>
<path d="M10590 4452 c-33 -17 -35 -20 -35 -69 1 -61 17 -83 59 -83 39 0 49 7
70 47 22 44 20 76 -7 101 -28 26 -41 27 -87 4z"/>
<path d="M10334 4435 c-61 -32 -104 -78 -104 -110 0 -58 138 -155 222 -155 28
0 42 6 58 28 19 23 21 36 18 93 -6 79 -27 119 -78 148 -48 27 -57 26 -116 -4z"/>
<path d="M1805 4302 c-67 -32 -125 -90 -125 -127 0 -32 46 -84 95 -106 73 -34
169 -18 195 31 6 11 11 51 11 89 1 139 -51 172 -176 113z"/>
<path d="M2532 4283 c-18 -9 -48 -35 -66 -57 -71 -88 -84 -146 -40 -187 36
-34 154 -40 202 -10 43 28 73 78 65 111 -12 53 -47 122 -71 140 -30 24 -47 25
-90 3z"/>
<path d="M2741 4234 c-20 -15 -23 -23 -18 -62 7 -60 36 -86 87 -77 40 7 70 37
70 69 0 30 -60 86 -91 86 -13 0 -35 -7 -48 -16z"/>
<path d="M2043 4194 c-17 -7 -36 -81 -29 -110 4 -15 20 -28 52 -40 52 -20 69
-14 94 30 14 24 13 30 -10 74 -22 41 -29 47 -60 49 -19 1 -41 0 -47 -3z"/>
<path d="M2720 4041 c-24 -7 -25 -11 -22 -67 4 -72 20 -88 77 -80 49 6 75 35
75 86 0 61 -48 84 -130 61z"/>
<path d="M1726 4009 c-22 -32 -20 -63 7 -104 38 -61 107 -61 127 0 6 19 10 44
8 56 -4 29 -44 58 -89 65 -30 5 -39 2 -53 -17z"/>
<path d="M1935 4018 c-3 -13 -10 -44 -21 -99 -5 -20 0 -29 23 -44 15 -10 43
-19 62 -19 62 0 103 80 67 129 -7 10 -35 24 -62 31 -62 17 -64 17 -69 2z"/>
<path d="M2555 3973 c-64 -9 -75 -74 -20 -122 63 -55 125 -33 125 44 0 35 -5
48 -26 64 -15 12 -32 20 -38 20 -6 -1 -24 -4 -41 -6z"/>
<path d="M10445 3909 c-36 -32 -44 -63 -25 -100 9 -15 22 -19 64 -19 65 0 86
19 86 77 0 76 -62 97 -125 42z"/>
<path d="M10632 3863 c-16 -14 -21 -32 -24 -78 l-3 -60 70 0 c67 0 70 1 83 28
21 43 8 93 -28 112 -38 20 -73 19 -98 -2z"/>
<path d="M9598 3820 c-9 -6 -27 -26 -39 -46 -22 -36 -22 -37 -4 -70 9 -18 23
-35 31 -38 15 -6 84 12 103 27 15 12 11 101 -5 117 -15 15 -68 21 -86 10z"/>
<path d="M9764 3797 l-27 -24 15 -59 c13 -53 17 -59 39 -57 102 9 126 28 115
89 -13 67 -90 95 -142 51z"/>
<path d="M10415 3743 c-113 -27 -129 -95 -50 -203 68 -92 142 -116 189 -60 63
76 60 208 -6 254 -22 15 -88 20 -133 9z"/>
<path d="M10656 3648 c-8 -13 -18 -42 -22 -64 -5 -36 -3 -44 17 -58 40 -27 73
-20 114 25 30 33 35 46 30 67 -11 43 -24 52 -76 52 -39 0 -51 -4 -63 -22z"/>
<path d="M9615 3623 c-72 -37 -95 -61 -95 -100 0 -42 49 -99 119 -136 108 -59
171 -28 171 86 0 75 -21 123 -69 154 -43 29 -64 28 -126 -4z"/>
<path d="M9895 3633 c-50 -12 -69 -65 -46 -126 10 -26 50 -42 81 -32 24 8 60
65 60 96 0 54 -35 76 -95 62z"/>
<path d="M3235 3469 c-49 -45 -95 -128 -95 -171 0 -32 28 -65 65 -74 14 -3 53
-4 85 -2 70 5 106 27 133 80 17 35 17 37 -4 94 -45 120 -106 144 -184 73z"/>
<path d="M2589 3486 c-120 -43 -193 -133 -159 -196 30 -55 169 -97 226 -67 59
30 67 48 62 134 -5 88 -19 118 -62 133 -16 5 -29 10 -30 10 -1 -1 -17 -7 -37
-14z"/>
<path d="M3489 3465 c-35 -19 -40 -35 -27 -82 14 -53 25 -63 70 -63 28 0 46 7
63 25 40 39 30 78 -29 114 -39 25 -43 25 -77 6z"/>
<path d="M2782 3371 c-8 -4 -18 -27 -23 -51 -13 -56 6 -85 63 -101 40 -10 44
-10 65 16 30 34 29 62 -2 108 -21 30 -32 37 -58 37 -18 0 -38 -4 -45 -9z"/>
<path d="M3486 3270 c-45 -9 -58 -24 -45 -57 5 -14 9 -35 9 -48 0 -15 10 -31
25 -41 22 -14 32 -15 65 -5 45 13 60 35 60 83 0 68 -28 85 -114 68z"/>
<path d="M2687 3193 c-4 -3 -7 -19 -7 -34 0 -15 -4 -39 -10 -54 -8 -22 -6 -30
15 -51 69 -69 182 18 135 106 -12 23 -117 49 -133 33z"/>
<path d="M2481 3165 c-28 -37 -27 -54 9 -103 24 -33 36 -42 60 -42 47 0 72 32
68 88 -3 50 -19 65 -85 78 -25 5 -34 1 -52 -21z"/>
<path d="M3291 3181 c-31 -8 -48 -53 -32 -87 6 -13 31 -34 56 -46 l45 -22 27
21 c24 18 28 27 26 63 -3 70 -43 93 -122 71z"/>
<path d="M9725 3114 c-47 -24 -65 -45 -65 -76 0 -42 32 -68 83 -68 53 0 73 19
82 75 5 32 3 44 -12 56 -29 26 -56 30 -88 13z"/>
<path d="M8825 3035 c-41 -42 -44 -73 -12 -110 21 -25 25 -26 67 -16 57 13 73
34 65 86 -7 46 -19 61 -58 70 -23 6 -33 2 -62 -30z"/>
<path d="M9015 3029 c-25 -21 -27 -25 -20 -78 4 -31 10 -59 14 -63 11 -12 111
4 127 19 30 31 10 112 -33 132 -35 16 -57 14 -88 -10z"/>
<path d="M9877 3038 c-10 -8 -18 -36 -23 -75 l-7 -63 29 0 c16 0 43 -4 61 -9
26 -8 35 -6 52 13 21 22 29 89 13 112 -21 32 -94 45 -125 22z"/>
<path d="M9660 2931 c-73 -11 -110 -41 -110 -88 0 -60 100 -193 155 -207 58
-15 117 55 131 155 7 53 -10 95 -52 128 -27 22 -46 23 -124 12z"/>
<path d="M8853 2863 c-60 -21 -103 -63 -103 -102 0 -62 131 -171 204 -171 60
0 86 40 86 132 0 62 -20 109 -58 137 -35 24 -70 26 -129 4z"/>
<path d="M9113 2850 c-32 -13 -46 -46 -38 -90 7 -43 17 -54 58 -64 23 -6 33
-1 58 25 40 43 46 74 22 107 -21 29 -62 38 -100 22z"/>
<path d="M9892 2828 c-5 -7 -15 -33 -22 -58 -11 -42 -11 -45 15 -67 32 -28 48
-29 91 -2 56 34 72 90 36 122 -22 20 -105 23 -120 5z"/>
<path d="M4021 2724 c-48 -43 -91 -125 -91 -174 0 -58 35 -84 113 -84 76 0
129 24 157 69 27 43 25 65 -10 135 -50 99 -101 116 -169 54z"/>
<path d="M4269 2725 c-37 -20 -41 -38 -21 -93 l18 -47 53 0 c60 1 81 18 81 67
0 21 -10 35 -42 58 -46 34 -53 35 -89 15z"/>
<path d="M3345 2692 c-86 -48 -135 -106 -135 -159 0 -56 80 -103 174 -103 48
0 59 4 90 34 40 37 45 70 25 156 -19 85 -81 113 -154 72z"/>
<path d="M3577 2603 c-37 -10 -50 -96 -19 -131 9 -11 36 -23 58 -27 37 -6 44
-3 63 21 28 36 27 53 -9 102 -30 42 -45 47 -93 35z"/>
<path d="M4285 2527 c-63 -19 -63 -19 -47 -86 14 -57 17 -61 48 -67 24 -4 43
-1 66 13 28 16 33 25 36 64 2 34 -2 50 -18 67 -23 24 -28 25 -85 9z"/>
<path d="M4080 2427 c-48 -24 -39 -92 15 -122 53 -28 91 -20 115 24 10 19 -12
90 -32 102 -19 13 -69 10 -98 -4z"/>
<path d="M3476 2408 c-2 -7 -7 -37 -10 -66 -5 -51 -4 -53 27 -73 38 -23 82
-19 112 11 24 24 27 93 5 114 -21 20 -129 32 -134 14z"/>
<path d="M3276 2379 c-25 -36 -20 -71 18 -112 36 -40 51 -44 90 -25 43 19 48
115 7 137 -10 6 -36 13 -58 17 -35 5 -43 3 -57 -17z"/>
<path d="M8913 2334 c-39 -23 -43 -29 -43 -63 0 -47 13 -59 72 -67 52 -7 72 7
87 62 12 44 6 61 -30 79 -36 19 -37 19 -86 -11z"/>
<path d="M8024 2304 c-38 -40 -41 -52 -19 -94 17 -33 50 -39 102 -19 35 13 43
25 43 72 0 79 -69 102 -126 41z"/>
<path d="M8210 2292 c-20 -16 -21 -22 -13 -77 l9 -60 59 3 c33 2 66 8 72 14
23 18 16 92 -10 116 -29 27 -86 29 -117 4z"/>
<path d="M9077 2255 c-18 -17 -33 -113 -21 -125 5 -4 34 -11 65 -14 47 -6 58
-4 73 13 28 31 27 98 -3 122 -28 23 -93 25 -114 4z"/>
<path d="M8810 2159 c-42 -17 -60 -40 -60 -77 0 -48 34 -116 85 -169 54 -56
99 -60 139 -12 38 44 56 94 56 150 0 40 -5 53 -34 83 -32 34 -37 36 -97 35
-35 0 -75 -5 -89 -10z"/>
<path d="M8023 2126 c-98 -46 -106 -104 -24 -185 105 -105 208 -108 227 -6 3
20 4 61 2 91 -4 45 -10 61 -38 89 -42 43 -90 46 -167 11z"/>
<path d="M8300 2107 c-21 -11 -25 -20 -28 -67 -4 -63 10 -80 65 -80 26 0 37 7
58 37 29 43 31 69 9 101 -17 25 -64 29 -104 9z"/>
<path d="M9104 2060 c-23 -9 -44 -50 -47 -95 -2 -24 4 -33 35 -49 l37 -21 43
31 c44 30 55 55 44 100 -4 15 -16 26 -34 30 -15 3 -34 7 -42 9 -8 2 -24 0 -36
-5z"/>
<path d="M4854 2021 c-39 -24 -89 -102 -104 -163 -11 -41 -10 -51 4 -73 20
-31 54 -45 104 -45 84 0 147 38 172 104 9 26 7 38 -20 92 -49 99 -93 123 -156
85z"/>
<path d="M5072 2004 c-26 -18 -28 -50 -8 -98 16 -38 42 -51 86 -41 42 9 60 31
60 70 0 28 -7 39 -37 60 -43 29 -69 31 -101 9z"/>
<path d="M4173 1951 c-57 -26 -130 -95 -143 -136 -24 -74 48 -130 168 -130 61
0 65 2 98 38 33 35 35 41 29 85 -12 84 -25 121 -52 141 -32 26 -46 26 -100 2z"/>
<path d="M4382 1854 c-18 -12 -22 -25 -22 -64 0 -59 23 -80 87 -80 37 0 44 4
58 29 17 33 13 51 -23 99 -27 36 -63 42 -100 16z"/>
<path d="M5090 1808 c-19 -5 -39 -13 -43 -17 -5 -5 0 -35 11 -67 15 -46 24
-60 43 -64 60 -15 109 20 109 78 0 74 -35 94 -120 70z"/>
<path d="M4910 1711 c-14 -4 -29 -18 -34 -33 -15 -43 -1 -72 48 -97 42 -20 47
-21 74 -7 38 19 45 39 32 87 -15 55 -50 69 -120 50z"/>
<path d="M4297 1663 c-3 -10 -6 -41 -6 -70 -1 -48 1 -53 28 -68 36 -18 52 -19
84 -4 45 21 61 90 30 127 -12 14 -36 22 -75 27 -49 5 -57 4 -61 -12z"/>
<path d="M4095 1620 c-21 -40 -19 -50 16 -93 23 -28 38 -37 60 -37 54 0 69 15
69 68 0 58 -7 70 -51 82 -57 17 -77 13 -94 -20z"/>
<path d="M7190 1604 c-25 -29 -30 -42 -25 -63 12 -47 33 -62 79 -55 57 9 76
28 76 79 0 81 -73 103 -130 39z"/>
<path d="M8083 1604 c-39 -23 -43 -29 -43 -63 0 -46 12 -58 67 -67 53 -8 77 6
92 55 13 45 4 73 -29 91 -28 15 -40 13 -87 -16z"/>
<path d="M7393 1598 c-29 -14 -33 -26 -26 -92 l6 -56 59 2 c72 2 88 15 88 69
0 70 -62 108 -127 77z"/>
<path d="M8261 1527 c-17 -9 -28 -27 -38 -66 -7 -30 -10 -57 -6 -61 5 -4 34
-13 67 -20 57 -13 59 -13 77 9 12 15 19 39 19 67 0 39 -4 47 -32 64 -38 23
-54 24 -87 7z"/>
<path d="M7224 1446 c-96 -30 -135 -75 -114 -132 24 -64 139 -154 195 -154 53
0 86 52 87 139 1 70 -16 108 -61 138 -38 26 -49 27 -107 9z"/>
<path d="M7963 1430 c-12 -5 -30 -21 -39 -35 -15 -24 -16 -33 -5 -74 25 -92
101 -181 156 -181 31 0 63 27 87 73 43 85 41 155 -7 203 -21 21 -33 24 -97 23
-40 0 -83 -4 -95 -9z"/>
<path d="M7447 1392 c-26 -29 -23 -107 5 -126 33 -23 64 -19 93 12 40 41 48
68 30 103 -14 26 -20 29 -64 29 -34 0 -53 -5 -64 -18z"/>
<path d="M5674 1308 c-43 -38 -94 -139 -94 -186 0 -22 9 -41 26 -59 24 -24 30
-25 99 -21 54 4 81 11 104 27 35 25 61 69 61 103 0 31 -53 121 -86 147 -37 29
-67 26 -110 -11z"/>
<path d="M5918 1314 c-35 -19 -43 -52 -25 -97 21 -48 46 -61 97 -47 77 21 80
92 7 135 -51 29 -44 28 -79 9z"/>
<path d="M8248 1313 c-9 -10 -21 -35 -28 -56 -11 -35 -10 -41 11 -63 28 -29
61 -31 105 -3 58 35 59 108 3 128 -45 16 -74 14 -91 -6z"/>
<path d="M5013 1235 c-40 -17 -120 -90 -139 -126 -21 -42 -17 -68 16 -99 37
-34 121 -56 175 -46 21 4 51 20 67 36 23 23 28 37 28 77 0 65 -17 121 -45 149
-27 27 -55 30 -102 9z"/>
<path d="M5230 1147 c-19 -9 -26 -22 -28 -51 -5 -64 4 -84 46 -95 51 -15 59
-14 82 9 30 30 25 73 -11 115 -33 38 -50 42 -89 22z"/>
<path d="M5943 1116 c-63 -17 -67 -25 -47 -87 10 -30 22 -57 28 -61 21 -15 74
-8 100 13 33 26 36 84 5 123 -22 28 -24 29 -86 12z"/>
<path d="M6480 1034 c-12 -31 -2 -52 41 -88 38 -32 65 -30 91 5 19 25 19 28 4
57 -20 38 -44 52 -91 52 -29 0 -37 -5 -45 -26z"/>
<path d="M5753 1009 c-35 -10 -50 -41 -39 -82 8 -32 85 -71 118 -58 39 15 51
37 44 76 -13 66 -49 85 -123 64z"/>
<path d="M6361 973 c-43 -35 -47 -167 -7 -228 38 -58 109 -53 166 12 55 63 36
134 -52 193 -68 45 -77 47 -107 23z"/>
<path d="M5139 953 c-10 -100 -8 -123 14 -138 79 -55 177 43 121 123 -13 19
-24 22 -75 22 -32 0 -59 -3 -60 -7z"/>
<path d="M4949 914 c-29 -34 -29 -62 -1 -97 35 -42 42 -47 75 -47 58 0 90 81
50 129 -26 30 -102 40 -124 15z"/>
<path d="M7229 910 c-67 -35 -61 -111 11 -130 52 -14 76 -6 95 30 23 44 19 85
-10 104 -31 21 -51 20 -96 -4z"/>
<path d="M6606 878 c-14 -17 -26 -35 -26 -39 0 -13 84 -89 98 -89 69 0 76 98
10 144 -33 23 -52 20 -82 -16z"/>
<path d="M7385 818 c-27 -79 -35 -112 -28 -118 4 -4 33 -15 63 -23 49 -15 56
-15 72 0 9 8 22 30 28 49 12 36 2 67 -29 91 -21 16 -100 17 -106 1z"/>
<path d="M6542 725 c-11 -14 -18 -34 -15 -44 7 -28 41 -61 63 -61 10 0 25 -3
33 -6 18 -6 57 29 57 51 0 8 -14 30 -31 50 -38 43 -78 47 -107 10z"/>
<path d="M7100 737 c-13 -7 -31 -24 -39 -39 -21 -36 -3 -103 45 -176 63 -96
132 -99 188 -8 41 65 46 138 14 186 -13 19 -34 37 -48 41 -42 12 -134 9 -160
-4z"/>
<path d="M7397 619 c-22 -13 -47 -61 -47 -92 0 -30 32 -59 65 -59 29 0 91 44
100 71 11 35 -11 69 -52 80 -45 13 -44 13 -66 0z"/>
<path d="M5829 561 c-75 -49 -139 -127 -139 -172 0 -36 31 -60 83 -66 60 -7
110 11 148 54 29 34 31 40 27 104 -4 71 -24 109 -58 109 -9 0 -36 -13 -61 -29z"/>
<path d="M6005 505 c-32 -31 -35 -99 -6 -115 32 -16 60 -12 86 15 29 28 32 65
9 100 -21 32 -58 32 -89 0z"/>
<path d="M6573 438 c-23 -29 -21 -48 7 -86 35 -49 62 -59 96 -37 32 21 39 40
26 70 -20 44 -108 80 -129 53z"/>
<path d="M6393 383 c-24 -37 -25 -165 -1 -209 26 -47 68 -61 123 -40 56 22 85
58 85 105 -1 46 -15 72 -65 114 -77 65 -114 73 -142 30z"/>
<path d="M5960 341 l-45 -6 -7 -55 c-10 -72 -6 -80 39 -80 58 1 93 38 93 97 0
27 -16 55 -29 51 -4 0 -26 -4 -51 -7z"/>
<path d="M5757 278 c-9 -7 -21 -26 -27 -41 -12 -33 -1 -59 35 -83 21 -14 26
-14 53 0 16 8 32 23 36 31 10 27 7 80 -6 93 -16 16 -70 15 -91 0z"/>
<path d="M6660 250 l-35 -29 26 -28 c15 -15 32 -38 38 -50 24 -46 101 -18 101
36 0 43 -46 101 -80 101 -8 -1 -31 -14 -50 -30z"/>
<path d="M6571 121 c-19 -15 -22 -23 -16 -50 8 -35 35 -57 83 -67 63 -13 82
42 36 103 -29 38 -65 43 -103 14z"/>
</g>
</svg>
